<?xml version="1.0" encoding="UTF-8"?><svg id="Layer_1" xmlns="http://www.w3.org/2000/svg" xmlns:xlink="http://www.w3.org/1999/xlink" viewBox="0 0 370.06 265.99"><defs><style>.cls-1{fill:url(#linear-gradient-2);}.cls-2{fill:url(#linear-gradient);}.cls-3{fill:#eee;}</style><linearGradient id="linear-gradient" x1="129.69" y1="86.08" x2="290.7" y2="86.08" gradientUnits="userSpaceOnUse"><stop offset="0" stop-color="#555"/><stop offset=".09" stop-color="#747474"/><stop offset=".22" stop-color="#999"/><stop offset=".35" stop-color="#b8b8b8"/><stop offset=".49" stop-color="#cfcfcf"/><stop offset=".64" stop-color="#e0e0e0"/><stop offset=".8" stop-color="#eaeaea"/><stop offset="1" stop-color="#eee"/></linearGradient><linearGradient id="linear-gradient-2" x1="266.82" y1="127.21" x2="99.6" y2="127.21" gradientUnits="userSpaceOnUse"><stop offset="0" stop-color="#555"/><stop offset=".09" stop-color="#747474"/><stop offset=".22" stop-color="#999"/><stop offset=".35" stop-color="#b8b8b8"/><stop offset=".49" stop-color="#cfcfcf"/><stop offset=".64" stop-color="#e0e0e0"/><stop offset=".8" stop-color="#eaeaea"/><stop offset="1" stop-color="#eee"/></linearGradient></defs><g id="text"><g><path class="cls-3" d="M12.22,233.06c-.6,0-1.04-.25-1.31-.74-.28-.49-.31-.99-.09-1.49l10.44-24.84c.31-.7,.82-1.04,1.51-1.04s1.18,.35,1.44,1.04l10.48,24.88c.24,.53,.21,1.03-.09,1.49-.3,.47-.73,.7-1.28,.7-.31,0-.6-.08-.86-.25-.26-.17-.47-.4-.61-.68l-9.58-23.47h1.08l-9.72,23.47c-.12,.31-.31,.55-.58,.7-.26,.16-.54,.23-.83,.23Zm2.23-6.55l1.19-2.63h14.44l1.22,2.63H14.45Z"/><path class="cls-3" d="M48.51,233.24c-1.87,0-3.55-.44-5.04-1.31-1.49-.88-2.67-2.06-3.55-3.56-.88-1.5-1.33-3.19-1.35-5.06v-16.81c0-.48,.14-.86,.41-1.13,.28-.28,.65-.41,1.13-.41,.46,0,.82,.14,1.1,.41,.28,.28,.41,.65,.41,1.13v10.3c.79-1.08,1.82-1.95,3.1-2.61,1.27-.66,2.69-.99,4.25-.99,1.82,0,3.46,.44,4.9,1.31s2.57,2.07,3.4,3.58c.83,1.51,1.24,3.22,1.24,5.11s-.44,3.64-1.31,5.15c-.88,1.51-2.06,2.71-3.56,3.58-1.5,.88-3.21,1.31-5.13,1.31Zm0-2.74c1.34,0,2.55-.32,3.62-.97,1.07-.65,1.91-1.52,2.52-2.61s.92-2.33,.92-3.73-.31-2.6-.92-3.71c-.61-1.1-1.45-1.97-2.52-2.61-1.07-.64-2.27-.95-3.62-.95s-2.48,.32-3.55,.95-1.9,1.51-2.5,2.61c-.6,1.1-.9,2.34-.9,3.71s.3,2.63,.9,3.73c.6,1.09,1.43,1.96,2.5,2.61,1.07,.65,2.25,.97,3.55,.97Z"/><path class="cls-3" d="M72.95,233.24c-1.9,0-3.6-.44-5.11-1.31-1.51-.88-2.71-2.07-3.58-3.58s-1.31-3.23-1.31-5.15,.42-3.6,1.26-5.11c.84-1.51,1.98-2.71,3.42-3.58s3.07-1.31,4.9-1.31c1.56,0,2.97,.33,4.23,.99,1.26,.66,2.29,1.53,3.08,2.61v-10.3c0-.48,.15-.86,.45-1.13,.3-.28,.67-.41,1.1-.41,.46,0,.83,.14,1.12,.41,.29,.28,.43,.65,.43,1.13v16.81c-.05,1.87-.51,3.56-1.39,5.06-.88,1.5-2.06,2.69-3.55,3.56-1.49,.88-3.17,1.31-5.04,1.31Zm0-2.74c1.34,0,2.54-.32,3.58-.97,1.04-.65,1.87-1.52,2.48-2.61s.92-2.33,.92-3.73-.31-2.6-.92-3.71c-.61-1.1-1.44-1.97-2.48-2.61s-2.24-.95-3.58-.95-2.51,.32-3.58,.95c-1.07,.64-1.91,1.51-2.54,2.61-.62,1.1-.94,2.34-.94,3.71s.31,2.63,.94,3.73c.62,1.09,1.47,1.96,2.54,2.61,1.07,.65,2.26,.97,3.58,.97Z"/><path class="cls-3" d="M97.9,233.28c-1.7,0-3.22-.35-4.55-1.06s-2.38-1.75-3.15-3.11c-.77-1.37-1.15-3.05-1.15-5.04v-9.18c0-.43,.14-.79,.43-1.08s.65-.43,1.08-.43,.79,.14,1.08,.43c.29,.29,.43,.65,.43,1.08v9.18c0,1.46,.28,2.66,.83,3.58,.55,.92,1.3,1.62,2.23,2.09s1.99,.7,3.17,.7,2.15-.22,3.06-.67,1.63-1.04,2.16-1.8c.53-.76,.79-1.63,.79-2.61h2.05c-.05,1.51-.44,2.86-1.19,4.05-.74,1.19-1.75,2.13-3.02,2.83-1.27,.7-2.69,1.04-4.25,1.04Zm7.92-.22c-.46,0-.82-.14-1.1-.41-.28-.28-.41-.65-.41-1.13v-16.63c0-.46,.14-.82,.41-1.1s.64-.41,1.1-.41,.83,.14,1.12,.41c.29,.28,.43,.64,.43,1.1v16.63c0,.48-.14,.86-.43,1.13-.29,.28-.66,.41-1.12,.41Z"/><path class="cls-3" d="M118.24,233.06c-1.01,0-1.9-.27-2.66-.81s-1.37-1.29-1.8-2.25-.65-2.06-.65-3.31v-20.23c0-.46,.14-.82,.41-1.1s.64-.41,1.1-.41c.43,0,.79,.14,1.06,.41,.28,.28,.41,.64,.41,1.1v20.23c0,.98,.2,1.79,.59,2.43,.4,.64,.91,.95,1.53,.95h.9c.38,0,.7,.14,.94,.41,.24,.28,.36,.63,.36,1.06,0,.46-.17,.82-.52,1.1-.35,.28-.8,.41-1.35,.41h-.32Z"/><path class="cls-3" d="M128.61,233.06c-1.01,0-1.9-.27-2.66-.81s-1.37-1.29-1.8-2.25-.65-2.06-.65-3.31v-20.23c0-.46,.14-.82,.41-1.1s.64-.41,1.1-.41c.43,0,.79,.14,1.06,.41,.28,.28,.41,.64,.41,1.1v20.23c0,.98,.2,1.79,.59,2.43,.4,.64,.91,.95,1.53,.95h.9c.38,0,.7,.14,.94,.41,.24,.28,.36,.63,.36,1.06,0,.46-.17,.82-.52,1.1-.35,.28-.8,.41-1.35,.41h-.32Z"/><path class="cls-3" d="M142.04,233.24c-1.82,0-3.46-.44-4.9-1.31s-2.58-2.07-3.42-3.58c-.84-1.51-1.26-3.22-1.26-5.11s.44-3.64,1.31-5.15c.88-1.51,2.07-2.71,3.58-3.58,1.51-.88,3.2-1.31,5.08-1.31s3.59,.44,5.09,1.31c1.5,.88,2.69,2.07,3.56,3.58,.88,1.51,1.33,3.23,1.35,5.15l-1.22,.61c0,1.78-.4,3.37-1.21,4.79-.8,1.42-1.9,2.54-3.28,3.37-1.38,.83-2.95,1.24-4.7,1.24Zm.43-2.74c1.34,0,2.54-.32,3.58-.95s1.87-1.51,2.48-2.61c.61-1.1,.92-2.34,.92-3.71s-.31-2.63-.92-3.73-1.44-1.96-2.48-2.61c-1.04-.65-2.24-.97-3.58-.97s-2.51,.32-3.58,.97c-1.07,.65-1.91,1.52-2.54,2.61-.62,1.09-.94,2.33-.94,3.73s.31,2.6,.94,3.71c.62,1.1,1.47,1.97,2.54,2.61,1.07,.64,2.26,.95,3.58,.95Zm8.46,2.56c-.46,0-.83-.14-1.13-.41-.3-.28-.45-.64-.45-1.1v-5.94l.68-3.13,2.41,.76v8.32c0,.46-.14,.82-.43,1.1-.29,.28-.65,.41-1.08,.41Z"/><path class="cls-3" d="M159.39,225.29c-.48,0-.86-.14-1.13-.43s-.41-.65-.41-1.08v-17.28c0-.48,.14-.86,.41-1.13,.28-.28,.65-.41,1.13-.41,.46,0,.82,.14,1.1,.41,.28,.28,.41,.65,.41,1.13v17.28c0,.43-.14,.79-.41,1.08-.28,.29-.64,.43-1.1,.43Zm0,7.78c-.48,0-.86-.14-1.13-.41-.28-.28-.41-.64-.41-1.1v-16.63c0-.48,.14-.86,.41-1.13,.28-.28,.65-.41,1.13-.41,.46,0,.82,.14,1.1,.41,.28,.28,.41,.65,.41,1.13v16.63c0,.46-.14,.82-.41,1.1s-.64,.41-1.1,.41Zm15.26,0c-.46,0-.83-.14-1.12-.43s-.43-.65-.43-1.08v-9.18c0-1.46-.27-2.66-.81-3.58-.54-.92-1.28-1.62-2.21-2.09-.94-.47-2-.7-3.2-.7-1.13,0-2.14,.22-3.04,.67-.9,.44-1.61,1.04-2.14,1.8s-.79,1.63-.79,2.61h-2.09c.05-1.51,.45-2.86,1.21-4.05,.76-1.19,1.77-2.13,3.04-2.83,1.27-.7,2.69-1.04,4.25-1.04,1.68,0,3.19,.35,4.52,1.06s2.39,1.75,3.17,3.11c.78,1.37,1.17,3.05,1.17,5.04v9.18c0,.43-.14,.79-.43,1.08-.29,.29-.65,.43-1.08,.43Z"/><path class="cls-3" d="M191.79,233.06c-.6,0-1.04-.25-1.31-.74-.28-.49-.31-.99-.09-1.49l10.44-24.84c.31-.7,.82-1.04,1.51-1.04s1.18,.35,1.44,1.04l10.48,24.88c.24,.53,.21,1.03-.09,1.49-.3,.47-.73,.7-1.28,.7-.31,0-.6-.08-.86-.25s-.47-.4-.61-.68l-9.58-23.47h1.08l-9.72,23.47c-.12,.31-.31,.55-.58,.7-.26,.16-.54,.23-.83,.23Zm2.23-6.55l1.19-2.63h14.43l1.22,2.63h-16.85Z"/><path class="cls-3" d="M222.53,233.06c-1.01,0-1.9-.27-2.66-.81-.77-.54-1.37-1.29-1.8-2.25s-.65-2.06-.65-3.31v-20.23c0-.46,.14-.82,.41-1.1,.28-.28,.64-.41,1.1-.41,.43,0,.79,.14,1.06,.41,.28,.28,.41,.64,.41,1.1v20.23c0,.98,.2,1.79,.59,2.43,.4,.64,.91,.95,1.53,.95h.9c.38,0,.7,.14,.94,.41,.24,.28,.36,.63,.36,1.06,0,.46-.17,.82-.52,1.1-.35,.28-.8,.41-1.35,.41h-.32Z"/><path class="cls-3" d="M245.93,241.49c-.46,0-.83-.14-1.13-.41-.3-.28-.45-.65-.45-1.13v-10.3c-.79,1.08-1.82,1.95-3.08,2.61s-2.67,.99-4.23,.99c-1.82,0-3.46-.44-4.9-1.31s-2.58-2.07-3.42-3.58c-.84-1.51-1.26-3.22-1.26-5.11s.44-3.64,1.31-5.15c.88-1.51,2.07-2.71,3.58-3.58s3.22-1.31,5.11-1.31,3.55,.43,5.04,1.3c1.49,.86,2.67,2.05,3.55,3.56,.88,1.51,1.34,3.2,1.39,5.08v16.81c0,.48-.14,.86-.43,1.13-.29,.28-.65,.41-1.08,.41Zm-8.46-10.98c1.34,0,2.54-.32,3.58-.95s1.87-1.51,2.48-2.61c.61-1.1,.92-2.34,.92-3.71s-.31-2.63-.92-3.73c-.61-1.09-1.44-1.96-2.48-2.61-1.04-.65-2.24-.97-3.58-.97s-2.51,.32-3.58,.97c-1.07,.65-1.91,1.52-2.54,2.61s-.94,2.33-.94,3.73,.31,2.6,.94,3.71c.62,1.1,1.47,1.97,2.54,2.61,1.07,.64,2.26,.95,3.58,.95Z"/><path class="cls-3" d="M262.46,233.24c-1.82,0-3.46-.44-4.9-1.31s-2.58-2.07-3.42-3.58c-.84-1.51-1.26-3.22-1.26-5.11s.44-3.64,1.31-5.15c.88-1.51,2.07-2.71,3.58-3.58s3.2-1.31,5.08-1.31,3.59,.44,5.09,1.31,2.69,2.07,3.56,3.58c.88,1.51,1.33,3.23,1.35,5.15l-1.22,.61c0,1.78-.4,3.37-1.21,4.79-.8,1.42-1.9,2.54-3.28,3.37-1.38,.83-2.95,1.24-4.7,1.24Zm.43-2.74c1.34,0,2.54-.32,3.58-.95s1.87-1.51,2.48-2.61c.61-1.1,.92-2.34,.92-3.71s-.31-2.63-.92-3.73c-.61-1.09-1.44-1.96-2.48-2.61-1.04-.65-2.24-.97-3.58-.97s-2.51,.32-3.58,.97c-1.07,.65-1.91,1.52-2.54,2.61s-.94,2.33-.94,3.73,.31,2.6,.94,3.71c.62,1.1,1.47,1.97,2.54,2.61,1.07,.64,2.26,.95,3.58,.95Zm8.46,2.56c-.46,0-.83-.14-1.13-.41-.3-.28-.45-.64-.45-1.1v-5.94l.68-3.13,2.41,.76v8.32c0,.46-.14,.82-.43,1.1-.29,.28-.65,.41-1.08,.41Z"/><path class="cls-3" d="M279.81,225.29c-.48,0-.86-.14-1.13-.43-.28-.29-.41-.65-.41-1.08v-17.28c0-.48,.14-.86,.41-1.13s.65-.41,1.13-.41c.46,0,.82,.14,1.1,.41,.28,.28,.41,.65,.41,1.13v17.28c0,.43-.14,.79-.41,1.08s-.64,.43-1.1,.43Zm0,7.78c-.48,0-.86-.14-1.13-.41-.28-.28-.41-.64-.41-1.1v-16.63c0-.48,.14-.86,.41-1.13s.65-.41,1.13-.41c.46,0,.82,.14,1.1,.41,.28,.28,.41,.65,.41,1.13v16.63c0,.46-.14,.82-.41,1.1-.28,.28-.64,.41-1.1,.41Zm15.26,0c-.46,0-.83-.14-1.12-.43-.29-.29-.43-.65-.43-1.08v-9.18c0-1.46-.27-2.66-.81-3.58-.54-.92-1.28-1.62-2.21-2.09-.94-.47-2-.7-3.2-.7-1.13,0-2.14,.22-3.04,.67-.9,.44-1.62,1.04-2.14,1.8-.53,.76-.79,1.63-.79,2.61h-2.09c.05-1.51,.45-2.86,1.21-4.05,.76-1.19,1.77-2.13,3.04-2.83,1.27-.7,2.69-1.04,4.25-1.04,1.68,0,3.19,.35,4.52,1.06s2.39,1.75,3.17,3.11c.78,1.37,1.17,3.05,1.17,5.04v9.18c0,.43-.14,.79-.43,1.08s-.65,.43-1.08,.43Z"/><path class="cls-3" d="M301.59,216.72c-.41,0-.74-.13-1.01-.38-.26-.25-.4-.56-.4-.92,0-.38,.13-.7,.4-.95,.26-.25,.6-.38,1.01-.38h8.89c.41,0,.74,.13,1.01,.38,.26,.25,.4,.57,.4,.95,0,.36-.13,.67-.4,.92-.26,.25-.6,.38-1.01,.38h-8.89Zm8.64,16.34c-1.25,0-2.36-.3-3.35-.9-.98-.6-1.76-1.43-2.32-2.48-.56-1.06-.85-2.24-.85-3.56v-17.5c0-.43,.14-.79,.41-1.08,.28-.29,.64-.43,1.1-.43,.43,0,.79,.14,1.08,.43,.29,.29,.43,.65,.43,1.08v17.5c0,1.13,.33,2.06,.99,2.81s1.49,1.12,2.5,1.12h1.08c.38,0,.71,.14,.97,.43,.26,.29,.4,.65,.4,1.08,0,.46-.16,.82-.49,1.1-.32,.28-.74,.41-1.24,.41h-.72Z"/><path class="cls-3" d="M325.71,233.24c-1.82,0-3.46-.44-4.9-1.31s-2.58-2.07-3.42-3.58c-.84-1.51-1.26-3.22-1.26-5.11s.44-3.64,1.31-5.15c.88-1.51,2.07-2.71,3.58-3.58s3.2-1.31,5.08-1.31,3.59,.44,5.09,1.31,2.69,2.07,3.56,3.58c.88,1.51,1.33,3.23,1.35,5.15l-1.22,.61c0,1.78-.4,3.37-1.21,4.79-.8,1.42-1.9,2.54-3.28,3.37-1.38,.83-2.95,1.24-4.7,1.24Zm.43-2.74c1.34,0,2.54-.32,3.58-.95s1.87-1.51,2.48-2.61c.61-1.1,.92-2.34,.92-3.71s-.31-2.63-.92-3.73c-.61-1.09-1.44-1.96-2.48-2.61-1.04-.65-2.24-.97-3.58-.97s-2.51,.32-3.58,.97c-1.07,.65-1.91,1.52-2.54,2.61s-.94,2.33-.94,3.73,.31,2.6,.94,3.71c.62,1.1,1.47,1.97,2.54,2.61,1.07,.64,2.26,.95,3.58,.95Zm8.46,2.56c-.46,0-.83-.14-1.13-.41-.3-.28-.45-.64-.45-1.1v-5.94l.68-3.13,2.41,.76v8.32c0,.46-.14,.82-.43,1.1-.29,.28-.65,.41-1.08,.41Z"/><path class="cls-3" d="M343.06,233.06c-.48,0-.86-.14-1.13-.41-.28-.28-.41-.64-.41-1.1v-16.63c0-.48,.14-.86,.41-1.13s.65-.41,1.13-.41c.46,0,.82,.14,1.1,.41,.28,.28,.41,.65,.41,1.13v16.63c0,.46-.14,.82-.41,1.1-.28,.28-.64,.41-1.1,.41Zm15.26,0c-.46,0-.83-.14-1.12-.43-.29-.29-.43-.65-.43-1.08v-9.18c0-1.46-.27-2.66-.81-3.58-.54-.92-1.28-1.62-2.21-2.09-.94-.47-2-.7-3.2-.7-1.13,0-2.14,.22-3.04,.67-.9,.44-1.62,1.04-2.14,1.8-.53,.76-.79,1.63-.79,2.61h-2.09c.05-1.51,.45-2.86,1.21-4.05,.76-1.19,1.77-2.13,3.04-2.83,1.27-.7,2.69-1.04,4.25-1.04,1.68,0,3.19,.35,4.52,1.06s2.39,1.75,3.17,3.11c.78,1.37,1.17,3.05,1.17,5.04v9.18c0,.43-.14,.79-.43,1.08s-.65,.43-1.08,.43Z"/><path class="cls-3" d="M367.97,209.81c-.58,0-1.07-.21-1.48-.63-.41-.42-.61-.92-.61-1.49s.21-1.09,.63-1.48c.42-.38,.91-.58,1.46-.58s1.04,.19,1.46,.58c.42,.38,.63,.88,.63,1.48s-.2,1.07-.61,1.49c-.41,.42-.9,.63-1.48,.63Zm.04,23.26c-.46,0-.83-.14-1.12-.41-.29-.28-.43-.65-.43-1.13v-16.6c0-.48,.14-.86,.43-1.13,.29-.28,.66-.41,1.12-.41s.82,.14,1.1,.41,.41,.65,.41,1.13v16.6c0,.48-.14,.86-.41,1.13-.28,.28-.64,.41-1.1,.41Z"/></g><g><path class="cls-3" d="M57.77,265.99c-1.29,0-2.44-.25-3.44-.74-1.01-.49-1.79-1.17-2.35-2.05s-.84-1.87-.84-2.99v-10.06c0-.27,.08-.48,.25-.65s.38-.25,.65-.25,.48,.08,.65,.25,.25,.39,.25,.65v10.06c0,.8,.2,1.51,.61,2.12,.41,.62,.98,1.1,1.71,1.45,.73,.35,1.57,.53,2.51,.53s1.74-.17,2.45-.53c.71-.35,1.26-.83,1.67-1.44,.41-.61,.61-1.32,.61-2.13v-10.06c0-.27,.09-.48,.26-.65,.17-.17,.39-.25,.64-.25,.28,0,.5,.08,.66,.25s.24,.39,.24,.65v10.06c0,1.12-.28,2.12-.84,2.99s-1.33,1.56-2.31,2.05c-.98,.49-2.11,.74-3.38,.74Z"/><path class="cls-3" d="M69.47,252.09c-.34,0-.62-.12-.86-.37-.24-.25-.36-.54-.36-.87s.12-.64,.37-.86c.25-.22,.53-.34,.85-.34s.61,.11,.85,.34c.24,.22,.37,.51,.37,.86s-.12,.63-.36,.87c-.24,.25-.52,.37-.86,.37Zm.02,13.57c-.27,0-.48-.08-.65-.24s-.25-.38-.25-.66v-9.68c0-.28,.08-.5,.25-.66s.38-.24,.65-.24,.48,.08,.64,.24c.16,.16,.24,.38,.24,.66v9.68c0,.28-.08,.5-.24,.66-.16,.16-.38,.24-.64,.24Z"/><path class="cls-3" d="M74.21,260.8c-.24,0-.44-.08-.62-.25-.18-.17-.26-.38-.26-.63,0-.27,.09-.48,.26-.65,.17-.17,.38-.25,.62-.25h4.87c.25,0,.46,.08,.63,.25s.25,.38,.25,.65c0,.25-.08,.46-.25,.63-.17,.17-.38,.25-.63,.25h-4.87Z"/><path class="cls-3" d="M89.5,265.99c-1.29,0-2.44-.25-3.44-.74-1.01-.49-1.79-1.17-2.35-2.05s-.84-1.87-.84-2.99v-10.06c0-.27,.08-.48,.25-.65s.38-.25,.65-.25,.48,.08,.65,.25,.25,.39,.25,.65v10.06c0,.8,.2,1.51,.61,2.12,.41,.62,.98,1.1,1.71,1.45,.73,.35,1.57,.53,2.51,.53s1.74-.17,2.45-.53c.71-.35,1.26-.83,1.67-1.44,.41-.61,.61-1.32,.61-2.13v-10.06c0-.27,.09-.48,.26-.65,.17-.17,.39-.25,.64-.25,.28,0,.5,.08,.66,.25s.24,.39,.24,.65v10.06c0,1.12-.28,2.12-.84,2.99s-1.33,1.56-2.31,2.05c-.98,.49-2.11,.74-3.38,.74Z"/><path class="cls-3" d="M99.83,265.65c-.24,0-.43-.08-.58-.23-.15-.15-.22-.34-.22-.55s.08-.42,.25-.63l3.76-4.7,.99,1.32-3.57,4.51c-.15,.18-.36,.27-.63,.27Zm8.23,0c-.17,0-.31-.02-.42-.07-.11-.05-.22-.14-.34-.28l-3.63-4.56-.67-.61-3.65-4.56c-.17-.2-.25-.4-.25-.61s.07-.39,.21-.56c.14-.16,.34-.24,.59-.24,.27,0,.49,.1,.67,.29l3.55,4.43,.55,.48,3.93,4.91c.2,.22,.28,.45,.26,.66s-.11,.39-.27,.51c-.16,.13-.33,.19-.51,.19Zm-3.23-5.44l-1.16-1.11,3.55-4.56c.1-.14,.21-.24,.34-.29,.13-.06,.25-.08,.38-.08,.27,0,.47,.08,.6,.24,.13,.16,.2,.35,.19,.58,0,.22-.09,.43-.24,.63l-3.65,4.6Z"/><path class="cls-3" d="M118.86,265.65c-.27,0-.48-.08-.65-.25s-.25-.38-.25-.65v-14.59c0-.27,.08-.48,.25-.65s.38-.25,.65-.25h3.78c1.2,0,2.31,.2,3.31,.6,1,.4,1.87,.97,2.59,1.7,.73,.74,1.29,1.6,1.68,2.59s.59,2.09,.59,3.3-.2,2.31-.59,3.31-.95,1.87-1.68,2.6c-.73,.74-1.59,1.3-2.59,1.7-1,.4-2.1,.6-3.31,.6h-3.78Zm.9-1.62h2.88c1.26,0,2.37-.28,3.33-.85,.96-.57,1.71-1.35,2.26-2.34s.82-2.13,.82-3.4-.27-2.41-.82-3.4c-.55-.99-1.3-1.77-2.26-2.33-.96-.56-2.07-.84-3.33-.84h-2.88v13.17Z"/><path class="cls-3" d="M139.27,265.76c-1.15,0-2.16-.25-3.04-.75-.88-.5-1.58-1.19-2.08-2.07s-.76-1.89-.76-3.02,.24-2.16,.71-3.03c.48-.88,1.13-1.56,1.96-2.07s1.8-.76,2.89-.76,1.99,.24,2.78,.72c.79,.48,1.4,1.15,1.83,2,.43,.85,.64,1.83,.64,2.92,0,.24-.08,.43-.23,.58-.15,.15-.35,.22-.59,.22h-8.78v-1.45h8.88l-.9,.63c.01-.77-.13-1.46-.42-2.08s-.71-1.1-1.26-1.45c-.55-.35-1.2-.52-1.95-.52-.8,0-1.49,.18-2.09,.55s-1.05,.87-1.36,1.52c-.31,.65-.47,1.39-.47,2.21s.18,1.56,.55,2.21c.36,.64,.86,1.15,1.5,1.51s1.37,.55,2.19,.55c.48,0,.96-.08,1.46-.25,.5-.17,.89-.38,1.19-.63,.17-.13,.36-.19,.58-.2,.22,0,.4,.05,.54,.18,.21,.18,.32,.38,.33,.59,0,.21-.09,.39-.28,.55-.46,.39-1.05,.71-1.76,.97-.71,.25-1.39,.38-2.04,.38Z"/><path class="cls-3" d="M150.99,265.76c-.87,0-1.71-.14-2.53-.43-.82-.29-1.47-.7-1.96-1.23-.17-.18-.24-.39-.21-.63,.03-.24,.14-.43,.34-.59,.22-.17,.45-.24,.68-.21,.23,.03,.42,.13,.58,.29,.31,.36,.73,.66,1.28,.87,.55,.22,1.15,.33,1.81,.33,.97,0,1.68-.16,2.13-.49,.45-.33,.69-.74,.7-1.23,0-.48-.23-.88-.68-1.2-.46-.32-1.23-.57-2.32-.76-1.41-.24-2.45-.64-3.1-1.2-.65-.56-.98-1.23-.98-2.02,0-.71,.2-1.31,.59-1.79,.39-.48,.91-.83,1.54-1.07,.64-.24,1.33-.36,2.07-.36,.94,0,1.75,.16,2.44,.47,.69,.31,1.24,.74,1.66,1.27,.15,.2,.22,.4,.2,.62s-.14,.39-.35,.51c-.18,.13-.4,.17-.64,.13-.25-.04-.45-.15-.62-.34-.35-.38-.75-.65-1.2-.83-.45-.17-.96-.26-1.53-.26-.73,0-1.32,.14-1.76,.43-.45,.29-.67,.66-.67,1.1,0,.31,.08,.57,.24,.8,.16,.22,.45,.42,.86,.6,.41,.18,1,.33,1.77,.47,1.05,.18,1.88,.44,2.49,.77s1.04,.71,1.3,1.14c.26,.43,.39,.92,.39,1.45,0,.66-.19,1.24-.56,1.73s-.89,.89-1.56,1.19-1.47,.44-2.39,.44Z"/><path class="cls-3" d="M164.2,260.8c-.24,0-.44-.08-.62-.25-.18-.17-.26-.38-.26-.63,0-.27,.09-.48,.26-.65,.17-.17,.38-.25,.62-.25h4.87c.25,0,.46,.08,.63,.25s.25,.38,.25,.65c0,.25-.08,.46-.25,.63-.17,.17-.38,.25-.63,.25h-4.87Z"/><path class="cls-3" d="M178.6,265.65c-.25,0-.47-.09-.64-.26-.18-.17-.26-.39-.26-.64v-14.59c0-.27,.08-.48,.25-.65s.39-.25,.65-.25h9.72c.27,0,.48,.08,.65,.24s.25,.37,.25,.62c0,.24-.08,.44-.25,.6s-.38,.24-.65,.24h-8.82v5.59h6.4c.27,0,.48,.08,.64,.25s.24,.37,.24,.61c0,.25-.08,.46-.24,.62-.16,.16-.37,.24-.64,.24h-6.4v6.49c0,.25-.09,.47-.26,.64-.17,.18-.39,.26-.64,.26Z"/><path class="cls-3" d="M192.8,265.65c-.28,0-.5-.08-.65-.23-.15-.15-.23-.37-.23-.65v-9.72c0-.28,.08-.5,.23-.65s.37-.23,.65-.23,.49,.08,.64,.23c.15,.15,.22,.37,.22,.65v9.72c0,.28-.07,.5-.22,.65-.15,.15-.36,.23-.64,.23Zm-.11-7.12c.03-.85,.25-1.62,.66-2.3,.41-.68,.96-1.21,1.64-1.61,.68-.39,1.42-.59,2.24-.59,.71,0,1.26,.11,1.63,.32,.37,.21,.51,.5,.41,.86-.04,.2-.13,.34-.26,.42s-.29,.13-.46,.13-.38-.01-.6-.04c-.83-.1-1.56-.05-2.19,.16s-1.14,.54-1.52,1-.57,1.02-.57,1.66h-.97Z"/><path class="cls-3" d="M206.11,265.76c-1.13,0-2.14-.25-3.01-.76s-1.56-1.2-2.07-2.08c-.5-.88-.76-1.88-.76-3s.25-2.14,.76-3.02,1.19-1.58,2.07-2.08,1.88-.76,3.01-.76,2.11,.25,2.98,.76c.87,.5,1.55,1.2,2.06,2.08s.76,1.89,.78,3.02c0,1.12-.25,2.12-.76,3-.5,.88-1.19,1.58-2.07,2.08s-1.87,.76-2.99,.76Zm0-1.6c.78,0,1.48-.19,2.1-.56,.62-.37,1.1-.87,1.45-1.51,.35-.64,.53-1.36,.53-2.17s-.18-1.54-.53-2.18c-.35-.64-.83-1.15-1.45-1.52-.62-.37-1.32-.56-2.1-.56s-1.49,.19-2.11,.56-1.11,.88-1.47,1.52c-.36,.64-.54,1.37-.54,2.18s.18,1.54,.54,2.17c.36,.64,.85,1.14,1.47,1.51,.62,.37,1.33,.56,2.11,.56Z"/><path class="cls-3" d="M215.98,265.65c-.28,0-.5-.08-.66-.24s-.24-.38-.24-.64v-9.7c0-.28,.08-.5,.24-.66s.38-.24,.66-.24c.27,0,.48,.08,.64,.24,.16,.16,.24,.38,.24,.66v9.7c0,.27-.08,.48-.24,.64-.16,.16-.38,.24-.64,.24Zm8.9,0c-.27,0-.48-.08-.65-.25s-.25-.38-.25-.63v-5.36c0-.85-.16-1.55-.47-2.09-.31-.54-.74-.95-1.29-1.22s-1.17-.41-1.87-.41c-.66,0-1.25,.13-1.77,.39-.53,.26-.94,.61-1.25,1.05-.31,.44-.46,.95-.46,1.52h-1.22c.03-.88,.26-1.67,.7-2.36,.44-.69,1.03-1.24,1.77-1.65s1.57-.61,2.48-.61c.98,0,1.86,.21,2.64,.62,.78,.41,1.39,1.02,1.85,1.82s.68,1.78,.68,2.94v5.36c0,.25-.08,.46-.25,.63s-.38,.25-.63,.25Z"/><path class="cls-3" d="M228.69,256.12c-.24,0-.43-.07-.59-.22-.15-.15-.23-.33-.23-.54,0-.22,.08-.41,.23-.56,.15-.15,.35-.22,.59-.22h5.19c.24,0,.43,.07,.59,.22,.15,.15,.23,.33,.23,.56,0,.21-.08,.39-.23,.54-.15,.15-.35,.22-.59,.22h-5.19Zm5.04,9.53c-.73,0-1.38-.17-1.95-.53-.57-.35-1.03-.83-1.35-1.45-.33-.62-.49-1.31-.49-2.08v-10.21c0-.25,.08-.46,.24-.63,.16-.17,.37-.25,.64-.25,.25,0,.46,.08,.63,.25s.25,.38,.25,.63v10.21c0,.66,.19,1.2,.58,1.64,.38,.43,.87,.65,1.46,.65h.63c.22,0,.41,.08,.57,.25,.15,.17,.23,.38,.23,.63,0,.27-.09,.48-.28,.64-.19,.16-.43,.24-.72,.24h-.42Z"/><path class="cls-3" d="M237.55,260.8c-.24,0-.44-.08-.62-.25-.17-.17-.26-.38-.26-.63,0-.27,.09-.48,.26-.65,.18-.17,.38-.25,.62-.25h4.87c.25,0,.46,.08,.63,.25s.25,.38,.25,.65c0,.25-.08,.46-.25,.63-.17,.17-.38,.25-.63,.25h-4.87Z"/><path class="cls-3" d="M247.11,265.65c-.27,0-.48-.08-.65-.25s-.25-.38-.25-.65v-14.59c0-.27,.08-.48,.25-.65s.39-.25,.65-.25h9.74c.25,0,.46,.08,.63,.24s.25,.37,.25,.62c0,.24-.08,.44-.25,.6s-.38,.24-.63,.24h-8.84v5.59h6.4c.27,0,.48,.08,.65,.25s.25,.37,.25,.61c0,.25-.08,.46-.25,.62-.17,.16-.38,.24-.65,.24h-6.4v5.69h8.84c.25,0,.46,.08,.63,.24,.17,.16,.25,.36,.25,.6,0,.25-.08,.46-.25,.62s-.38,.24-.63,.24h-9.74Z"/><path class="cls-3" d="M261.47,265.65c-.28,0-.5-.08-.66-.24-.16-.16-.24-.38-.24-.64v-9.7c0-.28,.08-.5,.24-.66,.16-.16,.38-.24,.66-.24,.27,0,.48,.08,.64,.24s.24,.38,.24,.66v9.7c0,.27-.08,.48-.24,.64s-.38,.24-.64,.24Zm8.9,0c-.27,0-.48-.08-.65-.25s-.25-.38-.25-.63v-5.36c0-.85-.16-1.55-.47-2.09-.31-.54-.75-.95-1.29-1.22-.55-.27-1.17-.41-1.87-.41-.66,0-1.25,.13-1.77,.39-.53,.26-.94,.61-1.25,1.05-.31,.44-.46,.95-.46,1.52h-1.22c.03-.88,.26-1.67,.7-2.36,.44-.69,1.03-1.24,1.77-1.65s1.57-.61,2.48-.61c.98,0,1.86,.21,2.64,.62,.78,.41,1.39,1.02,1.85,1.82s.68,1.78,.68,2.94v5.36c0,.25-.08,.46-.25,.63s-.38,.25-.63,.25Z"/><path class="cls-3" d="M280.05,265.76c-1.11,0-2.1-.26-2.98-.77-.88-.51-1.58-1.21-2.09-2.09-.51-.88-.77-1.88-.77-3s.24-2.1,.73-2.98c.49-.88,1.16-1.58,2-2.09s1.79-.77,2.86-.77c.91,0,1.73,.19,2.47,.58,.73,.39,1.33,.89,1.79,1.52v-6.01c0-.28,.09-.5,.26-.66,.17-.16,.39-.24,.64-.24,.27,0,.48,.08,.65,.24s.25,.38,.25,.66v9.81c-.03,1.09-.3,2.08-.81,2.95-.51,.88-1.2,1.57-2.07,2.08-.87,.51-1.85,.77-2.94,.77Zm0-1.6c.78,0,1.48-.19,2.09-.57,.61-.38,1.09-.89,1.45-1.52,.36-.64,.54-1.36,.54-2.17s-.18-1.52-.54-2.16c-.36-.64-.84-1.15-1.45-1.52-.61-.37-1.31-.56-2.09-.56s-1.47,.19-2.09,.56-1.12,.88-1.48,1.52c-.36,.64-.55,1.37-.55,2.16s.18,1.54,.55,2.17c.36,.64,.86,1.14,1.48,1.52s1.32,.57,2.09,.57Z"/><path class="cls-3" d="M296.92,265.65c-.27,0-.48-.08-.65-.25s-.25-.38-.25-.65v-14.59c0-.27,.08-.48,.25-.65s.39-.25,.65-.25h3.78c1.2,0,2.31,.2,3.31,.6,1,.4,1.87,.97,2.59,1.7,.73,.74,1.29,1.6,1.68,2.59,.39,.99,.59,2.09,.59,3.3s-.2,2.31-.59,3.31c-.39,1-.95,1.87-1.68,2.6-.73,.74-1.59,1.3-2.59,1.7-1,.4-2.1,.6-3.31,.6h-3.78Zm.9-1.62h2.88c1.26,0,2.37-.28,3.33-.85,.96-.57,1.71-1.35,2.26-2.34s.82-2.13,.82-3.4-.27-2.41-.82-3.4c-.55-.99-1.3-1.77-2.26-2.33-.96-.56-2.07-.84-3.33-.84h-2.88v13.17Z"/><path class="cls-3" d="M317.33,265.76c-1.15,0-2.16-.25-3.04-.75s-1.58-1.19-2.08-2.07-.76-1.89-.76-3.02,.24-2.16,.71-3.03c.48-.88,1.13-1.56,1.96-2.07,.83-.5,1.79-.76,2.89-.76s1.99,.24,2.78,.72c.79,.48,1.4,1.15,1.83,2,.43,.85,.64,1.83,.64,2.92,0,.24-.08,.43-.23,.58-.15,.15-.35,.22-.59,.22h-8.78v-1.45h8.88l-.9,.63c.01-.77-.13-1.46-.42-2.08s-.71-1.1-1.26-1.45c-.55-.35-1.2-.52-1.95-.52-.8,0-1.49,.18-2.09,.55-.6,.36-1.05,.87-1.37,1.52-.32,.65-.47,1.39-.47,2.21s.18,1.56,.55,2.21c.36,.64,.86,1.15,1.5,1.51,.64,.36,1.37,.55,2.19,.55,.48,0,.96-.08,1.46-.25s.89-.38,1.19-.63c.17-.13,.36-.19,.58-.2,.22,0,.4,.05,.54,.18,.21,.18,.32,.38,.33,.59s-.09,.39-.28,.55c-.46,.39-1.05,.71-1.76,.97s-1.39,.38-2.04,.38Z"/><path class="cls-3" d="M328.48,265.65c-.36,0-.64-.2-.82-.59l-4.6-9.74c-.1-.2-.11-.39-.03-.59,.08-.2,.23-.35,.45-.46,.21-.11,.42-.13,.62-.05,.2,.08,.36,.21,.47,.41l4.37,9.47h-.9l4.33-9.47c.08-.21,.24-.35,.46-.42,.22-.07,.44-.06,.65,.04,.22,.11,.37,.27,.44,.47,.07,.2,.06,.4-.02,.58l-4.56,9.76c-.18,.39-.47,.59-.86,.59Z"/></g></g><g><path class="cls-2" d="M176.64,8.52l-46.95,85.74s8.86,23.33,27.49,9.82l27.54-48.09s3.46-8.24,6.26-.33l43.68,82.25s17.8,32.72,42.86,34.25h13.19L200.37,10.49s-12.46-22.23-23.74-1.98Z"/><path class="cls-3" d="M155.21,112.91c-.1,.05-10.03,24.38-10.03,24.38,0,0-16.95,33.17-41.96,35.34l-13.18,.34,36.21-68.9s29.06,8.78,28.96,8.84Z"/><path class="cls-1" d="M131.07,91.51l-26.96,54.97s-19.14,42.61,21.41,18.05l48.41-37.32s53.82-38.02,92.89,2.21c0,0-2.25-31.48-32.08-44.01,0,0-19.91-7.94-42.06,1.4-5.27,2.23-25.36,12.36-34.17,15.25-3.59,1.18-21.26,7.75-27.43-10.55Z"/></g></svg>