<?xml version="1.0" encoding="UTF-8"?><svg id="Layer_1" xmlns="http://www.w3.org/2000/svg" xmlns:xlink="http://www.w3.org/1999/xlink" viewBox="0 0 424.32 404.66"><defs><style>.cls-1{fill:url(#linear-gradient-2);}.cls-2{fill:#555;}.cls-3{fill:url(#linear-gradient);}</style><linearGradient id="linear-gradient" x1="80.77" y1="227.64" x2="408.77" y2="227.64" gradientUnits="userSpaceOnUse"><stop offset="0" stop-color="#eee"/><stop offset=".09" stop-color="#cecece"/><stop offset=".22" stop-color="#a9a9a9"/><stop offset=".35" stop-color="#8a8a8a"/><stop offset=".49" stop-color="#737373"/><stop offset=".64" stop-color="#626262"/><stop offset=".8" stop-color="#585858"/><stop offset="1" stop-color="#555"/></linearGradient><linearGradient id="linear-gradient-2" x1="360.13" y1="311.43" x2="19.48" y2="311.43" gradientUnits="userSpaceOnUse"><stop offset="0" stop-color="#eee"/><stop offset=".09" stop-color="#cecece"/><stop offset=".22" stop-color="#a9a9a9"/><stop offset=".35" stop-color="#8a8a8a"/><stop offset=".49" stop-color="#737373"/><stop offset=".64" stop-color="#626262"/><stop offset=".8" stop-color="#585858"/><stop offset="1" stop-color="#555"/></linearGradient></defs><path class="cls-3" d="M176.42,69.65L80.77,244.32s18.06,47.53,56,20l56.1-97.97s7.05-16.79,12.76-.67l88.98,167.55s36.26,66.66,87.3,69.76h26.86L224.77,73.67s-25.37-45.29-48.35-4.03Z"/><path class="cls-2" d="M132.77,282.32c-.21,.11-20.44,49.67-20.44,49.67,0,0-34.54,67.57-85.48,71.98l-26.85,.69,73.77-140.35s59.21,17.89,59,18Z"/><path class="cls-1" d="M83.6,238.72l-54.92,111.97s-38.98,86.79,43.62,36.76l98.61-76.02s109.65-77.46,189.23,4.5c0,0-4.58-64.13-65.35-89.65,0,0-40.56-16.18-85.68,2.85-10.74,4.53-51.65,25.18-69.62,31.06-7.32,2.4-43.32,15.78-55.88-21.48Z"/></svg>