<?xml version="1.0" encoding="UTF-8"?><svg id="Layer_1" xmlns="http://www.w3.org/2000/svg" viewBox="0 0 234.5 195.22"><defs><style>.cls-1{fill:#c3c3c3;}</style></defs><path class="cls-1" d="M142.69,192.17c1.19,.41,.89,2.16-.37,2.16h0c-.54,0-1.08-.04-1.63-.1l-30.15-3.71c-.34-.04-.69,.08-.93,.32l-4.06,4.05c-.37,.37-.96,.44-1.4,.15-1.45-.94-2.89-1.93-4.3-2.94-3.66-2.62-7.18-5.45-10.31-8.31-.94-.86,.07-2.35,1.23-1.82,4.55,2.06,9.7,3.3,15.05,4.18h0c9.38,1.54,19.41,1.96,28.05,3.68,3.24,.65,6.17,1.44,8.82,2.34Z"/><path class="cls-1" d="M145.07,172.49c1.22,1.21-.04,3.21-1.68,2.67-.03-.01-.07-.02-.1-.03-1.85-.61-3.89-1.08-6.18-1.48-3.27-.57-7.05-.98-11.57-1.37-19.79-1.73-37.29-1.54-54.52-7.49-.03-.01-.07-.02-.1-.03-5.95-2.06-11-6.1-14.39-11.39-.19-.3-.39-.61-.59-.91h0c-2.7-4.2-5.48-8.53-8.3-12.91-.81-1.26,.38-2.83,1.82-2.43,1.49,.42,3.01,.82,4.54,1.19,12.26,2.99,25.65,4.66,38.87,7.87,21.98,5.35,37.03,13.25,47.61,22.14,1.61,1.35,3.11,2.72,4.52,4.11,.02,.02,.05,.04,.07,.07Z"/><path class="cls-1" d="M167.03,154.92c.66,1.03-.63,2.18-1.59,1.43-4.65-3.6-10.31-6.45-17.34-8.83-28.07-9.5-75.24-13.85-111.81-36.76-3.82-2.39-7.62-4.88-11.09-7.81-.76-.64-2.66-2.7-3.74-4.12-11.99-15.8-18.74-29.04-19.32-30.01-.63-1.06-2.48-5.78-2.08-8.9h0c.11-.88,1.18-1.26,1.83-.65,1.38,1.29,2.79,2.53,4.24,3.72,24.02,19.8,57.32,26.99,95.01,43.42,42.6,18.58,54.88,31.17,65.9,48.52Z"/><path class="cls-1" d="M170.86,130.31c.51,1.1-.98,2.03-1.75,1.09-6.74-8.21-15.48-14.29-27.86-20.88C95.77,86.32,45.92,80.91,9.35,42.63c-.45-.47-.9-.95-1.35-1.43h0c-1.68-1.82-1.19-4.75,1.02-5.88,1.81-.92,3.85-1.43,6-1.43,.12,0,.23,0,.35,0l5.44,.14c3.03,.08,6.05-.47,8.86-1.63h0c.62-.25,.84-1.01,.45-1.55l-1.64-2.32c-.59-.84-1.08-1.73-1.45-2.66-1.23-3.04,2.23-5.82,4.96-3.99h0c.06,.04,.13,.09,.19,.12,35.94,24.04,76.68,41.17,109.49,70.09,14.8,13.04,23.42,25.72,29.19,38.23Z"/><path class="cls-1" d="M216.85,162.74l-37.64,9.47c-2.96,.75-5.55-2.14-4.46-4.99l.03-.09c2.01-5.26,4.42-10.73,6.92-16.5,9.99-22.99-.37-38.12-13.87-52.51C135.67,63.86,87.11,39.08,47.26,10.59h0c-2.51-1.8-1.95-5.67,.98-6.68L57.43,.73C58.84,.24,60.31,0,61.77,0c2.49,0,4.97,.7,7.12,2.07l53.54,33.96c.48,.3,1.02,.5,1.59,.56l23.17,2.74c3.72,.44,7.05,2.42,9.21,5.42l43.32,58.07c.65,.87,1.63,1.42,2.71,1.51l23.99,2.07c.19,.02,.37,.04,.56,.06,1.31,.17,2.42,1.04,2.95,2.24,2.56,5.79,4.18,11.92,4.51,18.4,.7,13.72-6.01,25.93-16.02,34.81-.45,.4-.99,.68-1.57,.82Z"/></svg>