<?xml version="1.0" encoding="UTF-8"?>
<svg id="Layer_1" data-name="Layer 1" xmlns="http://www.w3.org/2000/svg" viewBox="0 0 410.73 350.01">
  <defs>
    <style>
      .cls-1 {
        fill: #7c7c7c;
      }

      .cls-1, .cls-2, .cls-3, .cls-4, .cls-5, .cls-6, .cls-7, .cls-8, .cls-9, .cls-10, .cls-11, .cls-12, .cls-13, .cls-14, .cls-15, .cls-16, .cls-17, .cls-18, .cls-19, .cls-20 {
        stroke-width: 0px;
      }

      .cls-2 {
        fill: #666;
      }

      .cls-3 {
        fill: #b2b2b2;
      }

      .cls-4 {
        fill: #727272;
      }

      .cls-5 {
        fill: #939393;
      }

      .cls-6 {
        opacity: .3;
      }

      .cls-6, .cls-12 {
        fill: #fff;
        isolation: isolate;
      }

      .cls-7 {
        fill: #b7b7b7;
      }

      .cls-8 {
        fill: #6b6b6b;
      }

      .cls-9 {
        fill: #777;
      }

      .cls-10 {
        fill: #333;
      }

      .cls-11 {
        fill: #545454;
      }

      .cls-12 {
        opacity: .2;
      }

      .cls-13 {
        fill: #3d3d3d;
      }

      .cls-14 {
        fill: #595959;
      }

      .cls-15 {
        fill: #eee;
      }

      .cls-16 {
        fill: #565656;
      }

      .cls-17 {
        fill: #dbdbdb;
      }

      .cls-18 {
        fill: #444;
      }

      .cls-19 {
        fill: #3a3a3a;
      }

      .cls-20 {
        fill: #afafaf;
      }
    </style>
  </defs>
  <g id="freepik--background-complete--inject-5">
    <rect class="cls-9" x="386.67" y="320.94" width="21.68" height=".25"/>
    <rect class="cls-9" x="269.01" y="315.76" width="34.11" height=".25"/>
    <rect class="cls-9" x="355.04" y="311.66" width="44.53" height=".25"/>
    <rect class="cls-9" x="120.33" y="316.7" width="11.14" height=".25"/>
    <rect class="cls-9" x="73.03" y="316.7" width="38.39" height=".25"/>
    <rect class="cls-9" x="24.76" y="312.48" width="27.7" height=".25"/>
    <path class="cls-18" d="m174.52,123.33l.45-13.14-8.06-2.64c-.35-4.45-1.07-8.87-2.16-13.2l6.84-5-4.64-12.34-8.46.68c-2.01-3.98-4.35-7.77-7-11.35l4.38-7.31-9-9.61-7.56,3.87c-3.4-2.91-7.03-5.53-10.86-7.84l1.22-8.4-12-5.44-5.5,6.44c-4.24-1.36-8.59-2.36-13-3l-2-8.23-13.18-.45-2.6,8.07c-4.45.35-8.86,1.07-13.19,2.15l-5.08-6.8-12.34,4.61.68,8.46c-3.97,2.04-7.77,4.4-11.35,7.07l-7.36-4.48-9.65,9,3.87,7.6c-2.91,3.38-5.52,7.01-7.8,10.84l-8.39-1.26-5.48,12,6.48,5.49c-1.37,4.24-2.37,8.59-3,13l-8.33,2.09-.45,13.14,8.1,2.64c.34,4.45,1.05,8.86,2.15,13.19l-6.84,5,4.65,12.35,8.46-.68c2,3.98,4.34,7.78,7,11.35l-4.39,7.31,9,9.61,7.56-3.87c3.39,2.91,7.02,5.52,10.84,7.83l-1.26,8.39,12,5.45,5.53-6.44c4.24,1.37,8.59,2.39,13,3.05l2,8.23,13.18.45,2.6-8.07c4.45-.35,8.87-1.07,13.2-2.15l5,6.8,12.34-4.61-.64-8.46c3.97-2.05,7.76-4.41,11.35-7.07l7.27,4.38,9.65-9-3.87-7.6c2.91-3.38,5.52-7.01,7.8-10.84l8.39,1.26,5.48-12-6.48-5.5c1.39-4.24,2.41-8.59,3.05-13l8.4-2.02Zm-88.79,42.57c-28.79-.97-51.34-25.1-50.37-53.89.97-28.79,25.1-51.34,53.89-50.37,28.79.97,51.34,25.1,50.37,53.89,0,.01,0,.03,0,.04-.99,28.78-25.11,51.31-53.89,50.33h0Z"/>
    <path class="cls-18" d="m399.45,79.87l3.31-3.09-1.31-2.61c1-1.17,1.9-2.42,2.69-3.74l2.9.43,1.87-4.14-2.22-1.89c.48-1.46.83-2.97,1.05-4.49l2.85-.71.14-4.54-2.78-.9c-.12-1.54-.37-3.06-.74-4.56l2.35-1.75-1.6-4.25-2.91.23c-.7-1.37-1.51-2.68-2.43-3.92l1.51-2.5-3.11-3.32-2.6,1.33c-1.17-1-2.42-1.9-3.74-2.69l.42-2.9-4.13-1.89-1.9,2.23c-1.47-.46-2.97-.79-4.49-1l-.71-2.84-4.54-.17-.91,2.8c-1.53.12-3.05.36-4.54.74l-1.74-2.35-4.26,1.59.24,2.92c-1.37.69-2.69,1.51-3.92,2.43l-2.52-1.51-3.32,3.09,1.29,2.55c-1.01,1.17-1.91,2.42-2.7,3.74l-2.89-.43-1.88,4.14,2.23,1.9c-.46,1.46-.8,2.96-1,4.48l-2.86.71-.14,4.54,2.79.9c.11,1.54.36,3.06.73,4.56l-2.36,1.74,1.6,4.25,2.92-.22c.7,1.37,1.51,2.68,2.43,3.92l-1.51,2.5,3.11,3.32,2.6-1.33c1.17,1,2.42,1.9,3.74,2.69l-.43,2.89,4.14,1.89,1.9-2.22c1.47.45,2.97.79,4.49,1l.71,2.84,4.54.17.91-2.8c1.53-.12,3.05-.36,4.54-.74l1.74,2.35,4.26-1.59-.23-2.92c1.37-.7,2.68-1.51,3.91-2.43l2.51,1.57Zm-23.62-19.13c-2.44-2.61-2.3-6.71.32-9.14,2.61-2.44,6.71-2.3,9.14.32,2.44,2.61,2.3,6.71-.32,9.14,0,0,0,0,0,0-2.6,2.45-6.68,2.33-9.13-.27-.02-.02-.03-.03-.05-.05h.04Z"/>
    <path class="cls-13" d="m278.45,214.79l-10.34-7.15h0c-1.01-3.72-2.41-7.33-4.16-10.77l2.65-10.4-15-16.06-10.56,1.93c-3.31-1.98-6.82-3.62-10.47-4.89h0l-6.42-10.81-22-.75-7.14,10.34h0c-3.72,1.01-7.32,2.4-10.76,4.15l-10.4-2.65-16.06,15,1.93,10.54h0c-1.98,3.32-3.62,6.83-4.88,10.49l-10.81,6.42-.75,22,10.35,7.14c1,3.74,2.39,7.37,4.15,10.82h0l-2.68,10.31,15,16.06,10.49-1.92c3.34,1.99,6.87,3.63,10.54,4.9h0l6.41,10.79,22,.76,7.13-10.34c3.75-1.01,7.39-2.41,10.86-4.16h0l10.34,2.64,16.07-15-1.93-10.54c1.99-3.32,3.62-6.84,4.88-10.5h0l10.81-6.42.75-21.93Zm-68.45,33.39c-13.64-.47-24.32-11.9-23.85-25.54.47-13.64,11.9-24.32,25.54-23.85,13.64.47,24.31,11.9,23.85,25.53-.48,13.64-11.91,24.32-25.55,23.86h.01Z"/>
    <path class="cls-1" d="m302,152.45h-.07l-17.32-.59c-.71-.01-1.37-.39-1.74-1l-4.67-7.85c-2.52-.92-4.95-2.05-7.28-3.38l-7.47,1.29c-.71.13-1.43-.11-1.92-.64l-11.83-12.66c-.5-.53-.69-1.29-.5-2l1.89-7.41c-1.17-2.4-2.13-4.9-2.86-7.47l-7.53-5.2c-.59-.41-.94-1.09-.91-1.81l.59-17.32c.02-.71.4-1.36,1-1.74l7.87-4.67c.91-2.51,2.04-4.94,3.37-7.25l-1.38-7.53c-.13-.71.11-1.44.64-1.93l12.66-11.82c.53-.51,1.29-.7,2-.51l7.44,1.9c2.4-1.17,4.89-2.13,7.45-2.87l5.2-7.53c.39-.61,1.09-.96,1.81-.91l17.31.6c.72.02,1.37.39,1.75,1l4.67,7.86c2.5.92,4.91,2.05,7.22,3.38l7.56-1.39c.71-.13,1.43.11,1.92.64l11.83,12.66c.5.54.69,1.29.5,2l-1.9,7.43c1.17,2.4,2.14,4.89,2.88,7.45l7.52,5.2c.59.41.94,1.09.91,1.81l-.59,17.31c-.02.71-.4,1.37-1,1.75l-7.87,4.67c-.91,2.51-2.04,4.93-3.37,7.24l1.38,7.54c.13.71-.11,1.43-.64,1.92l-12.74,11.83c-.53.5-1.29.69-2,.5l-7.4-1.89c-2.41,1.17-4.92,2.13-7.49,2.87l-5.15,7.52c-.38.6-1.03.98-1.74,1Zm-16.09-4.77l15,.51,5-7.19c.28-.42.7-.72,1.19-.84,2.81-.77,5.54-1.82,8.15-3.13h0c.45-.22.97-.27,1.46-.15l7,1.79,11-10.25-1.26-7.23c-.1-.51,0-1.03.26-1.47,1.49-2.48,2.71-5.1,3.65-7.83.16-.49.49-.91.94-1.18l7.53-4.46.51-15-7.2-5c-.38-.26-.66-.63-.81-1.07v-.17c-.77-2.76-1.82-5.44-3.12-8-.23-.46-.29-.98-.16-1.48l1.8-7.08-10.25-11-7.19,1.32c-.5.09-1.02,0-1.46-.26-2.48-1.49-5.11-2.72-7.84-3.67-.16-.05-.31-.12-.45-.2-.29-.18-.53-.43-.7-.72l-4.51-7.55-15-.52-5,7.21c-.3.42-.74.72-1.24.85-2.79.76-5.49,1.8-8.06,3.11-.45.23-.98.29-1.47.16l-7.08-1.8-11,10.25,1.32,7.17c.08.45.01.92-.19,1.33l-.1.17c-1.49,2.49-2.71,5.12-3.65,7.86-.17.47-.49.87-.92,1.12l-7.53,4.47-.51,15,7.21,5c.41.28.71.7.84,1.18.75,2.81,1.79,5.53,3.11,8.12.07.15.13.3.17.46.08.33.08.67,0,1l-1.8,7,10.25,11,7.14-1.31c.5-.09,1.01,0,1.45.26,2.5,1.49,5.14,2.71,7.89,3.67.5.15.91.48,1.17.93l4.46,7.62Zm24.78-94.81h0Zm-15.51,75.84h-1.11c-17.41-.31-31.28-14.67-30.97-32.08s14.67-31.28,32.08-30.97,31.28,14.67,30.97,32.08c-.3,16.98-13.99,30.67-30.97,30.97Zm0-59.09c-15.21.26-27.33,12.81-27.07,28.02s12.81,27.33,28.02,27.07c15.21-.26,27.33-12.81,27.07-28.02-.26-14.84-12.23-26.81-27.07-27.07h-.95Z"/>
    <polygon class="cls-11" points="341.89 27.77 334.71 25.85 332.79 18.67 335.6 15.87 338.56 22 344.7 24.97 341.89 27.77"/>
    <path class="cls-11" d="m342.33,22.97c1.31-1.31,1.31-3.42,0-4.73-1.31-1.31-3.42-1.31-4.73,0h0l3.57-5.36,4.78,2.42,1.05,5-4.67,2.67Z"/>
    <path class="cls-9" d="m335.03,16.45l5.26-5.26,7.16,1.91,1.93,7.17-5.26,5.26-7.17-1.93-1.92-7.15Zm9.55,4.3c1.31-1.31,1.31-3.43,0-4.74-1.31-1.31-3.43-1.31-4.74,0-1.31,1.31-1.31,3.43,0,4.74,1.32,1.29,3.43,1.28,4.74-.02v.02Z"/>
    <polygon class="cls-16" points="48.67 219.16 52.52 218.12 53.55 214.27 52.05 212.77 50.46 216.06 47.16 217.65 48.67 219.16"/>
    <path class="cls-16" d="m48.45,216.58c-.65-.75-.58-1.89.17-2.54.68-.59,1.69-.59,2.37,0l-1.91-2.87-2.63,1.28-.56,2.7,2.56,1.43Z"/>
    <path class="cls-9" d="m52.35,213.07l-2.82-2.82-3.85,1-1,3.85,2.77,2.85,3.85-1,1.05-3.88Zm-5.12,2.31c-.75-.65-.82-1.79-.17-2.54.65-.75,1.79-.82,2.54-.17.06.05.12.11.17.17.65.75.58,1.89-.17,2.54-.68.59-1.69.59-2.37,0Z"/>
    <path class="cls-4" d="m34.81,8.11l3.2,3.2c.83.82,2.17.82,3,0h0c.81-.83.81-2.17,0-3l-3.19-3.19c-.83-.81-2.17-.81-3,0h0c-.81.83-.82,2.16,0,2.99Z"/>
    <path class="cls-5" d="m32.56.16c2.37-.66,4.82.73,5.48,3.1.66,2.37-.73,4.82-3.1,5.48-2.25.63-4.6-.59-5.38-2.79-.77-2.41.56-5,2.97-5.77,0,0,.02,0,.03,0Z"/>
    <rect class="cls-10" x="29.01" y="3.66" width="10.1" height="1.37" transform="translate(.54 11.77) rotate(-19.76)"/>
  </g>
  <g id="freepik--Shadow--inject-5">
    <ellipse id="freepik--path--inject-5" class="cls-14" cx="208.45" cy="338.69" rx="193.89" ry="11.32"/>
  </g>
  <g id="freepik--oops--inject-5">
    <path class="cls-15" d="m45.17,43.1c-1-4.41-.56-8.11,1.34-11.13s5-5,9.41-6,8.22-.6,11.2,1.26,5,5,6,9.3c.71,2.65.76,5.44.17,8.12-.58,2.23-1.81,4.23-3.53,5.76-2.04,1.72-4.5,2.88-7.12,3.38-2.57.68-5.27.78-7.88.27-2.27-.55-4.33-1.77-5.9-3.5-1.88-2.11-3.15-4.69-3.69-7.46Zm8.34-1.86c.62,2.72,1.57,4.56,2.85,5.52,2.71,1.8,6.36,1.07,8.17-1.63.05-.07.09-.14.13-.21.72-1.39.73-3.6.05-6.61-.58-2.54-1.52-4.28-2.81-5.22-1.32-.95-3-1.24-4.56-.81-1.57.29-2.91,1.29-3.65,2.7-.74,1.47-.81,3.47-.18,6.26Z"/>
    <path class="cls-15" d="m77.04,39.8c-.72-2.76-.23-5.69,1.35-8.06,1.77-2.52,4.46-4.23,7.49-4.75,3.91-.89,7.13-.42,9.64,1.39,4.38,3.39,5.51,9.53,2.64,14.27-1.56,2.38-4.1,3.97-7.62,4.76-2.71.76-5.61.52-8.16-.66-2.77-1.35-4.75-3.93-5.34-6.95Zm7.51-1.73c.2,1.4.88,2.68,1.93,3.63,1.58,1.19,3.82.88,5.02-.69.12-.16.22-.32.31-.5.52-1.34.57-2.82.14-4.2-.21-1.36-.88-2.61-1.91-3.54-.81-.65-1.87-.89-2.88-.65-1.05.22-1.94.91-2.42,1.87-.54,1.3-.61,2.74-.19,4.08Z"/>
    <path class="cls-15" d="m107.03,51.02l-6.13-27,7-1.6.66,2.89c.49-1.15,1.21-2.2,2.11-3.07.99-.84,2.16-1.42,3.43-1.69,2.38-.65,4.92-.04,6.74,1.62,1.98,1.85,3.32,4.27,3.83,6.93.74,3.25.52,5.91-.64,8-1.12,2.02-3.07,3.45-5.33,3.91-1.08.26-2.2.3-3.29.13-1.05-.18-2.05-.58-2.94-1.17l2.12,9.33-7.56,1.72Zm3.61-18.86c.18,1.25.81,2.39,1.76,3.22.77.59,1.78.8,2.72.56.88-.18,1.62-.76,2-1.57.43-1.25.43-2.61,0-3.86-.18-1.26-.79-2.41-1.71-3.28-.7-.58-1.62-.8-2.5-.6-.93.2-1.72.82-2.14,1.67-.49,1.23-.54,2.6-.13,3.86Z"/>
    <path class="cls-15" d="m127.88,32.75l7.28-2.39c.39.7.99,1.26,1.72,1.6,1.6.46,3.32.04,4.53-1.1.34-.36.48-.86.37-1.34-.12-.55-.57-.98-1.13-1.07-1.13-.12-2.27-.12-3.4,0-1.9.16-3.8.16-5.7,0-1.11-.16-2.15-.64-3-1.37-1.86-1.61-2.43-4.26-1.39-6.49.58-1.16,1.49-2.13,2.61-2.79,1.6-.91,3.33-1.54,5.13-1.89,1.72-.47,3.5-.68,5.28-.64,1.12.07,2.2.42,3.16,1,1.02.69,1.88,1.58,2.54,2.62l-7,2.31c-.26-.52-.7-.93-1.23-1.17-.73-.26-1.52-.3-2.27-.1-.66.09-1.28.4-1.75.87-.31.33-.43.78-.33,1.22.11.48.51.85,1,.92,1.12.13,2.25.11,3.36-.07,1.93-.28,3.88-.31,5.82-.08,1.22.17,2.36.7,3.28,1.51.83.76,1.41,1.75,1.66,2.85.26,1.18.16,2.4-.27,3.53-.53,1.33-1.45,2.47-2.64,3.27-1.75,1.15-3.72,1.93-5.78,2.31-3.57.81-6.23.88-8,.21-1.72-.69-3.1-2.02-3.85-3.72Z"/>
    <path class="cls-15" d="m152.3,8.02h8.21v6.3l-1.51,12.67h-5.08l-1.62-12.65v-6.32Zm.4,20.88h7.66v6.78h-7.66v-6.78Z"/>
  </g>
  <g id="freepik--error-404--inject-5">
    <path class="cls-10" d="m87.13,94.03h-.18c-4.5-1.75-7.19-3.45-8.59-5.5-1.1.21-2.23.05-3.23-.44-1.17-.57-2.14-1.49-2.79-2.62-.69.53-1.6.67-2.42.37-1.23-.46-2.28-1.31-3-2.41-.45.33-1,.49-1.56.43-3-.24-7-6.16-7.29-12.46,0-.28.2-.51.48-.53.28-.01.51.2.52.48,0,0,0,0,0,0,.28,6,4.11,11.33,6.38,11.51.33.04.67-.06.93-.27-1.58-2.88-1.94-6.27-1-9.42.86-3,1.62-4.18,2.54-4,1.72.43,1.49,7,.58,11.29-.14.77-.42,1.51-.84,2.18.59.99,1.48,1.76,2.54,2.21.58.22,1.23.08,1.67-.35-.78-1.93-1-4.57.12-7.93,1.4-4.43,2-4.55,2.31-4.63.24-.05.48.03.64.22.93,1.05-.18,7.93-1.34,11.33-.14.41-.32.8-.56,1.16.54,1.08,1.41,1.96,2.49,2.5.71.34,1.5.49,2.28.43-.09-.19-.17-.38-.25-.58-.79-2.15-.4-4.62,1.19-7.58,1.05-1.95,1.91-2.87,2.71-2.87h0c.43,0,.82.26,1,.66.87,1.61.24,6.92-1.48,9.56-.4.61-.96,1.09-1.62,1.4,1.34,1.76,3.89,3.31,8,4.89.25.09.39.37.29.63,0,0,0,0,0,.01-.08.21-.29.35-.52.33Zm-5.68-16.47s-.57,0-1.83,2.35c-1.45,2.68-1.82,4.89-1.13,6.75.08.23.18.45.3.67.54-.22,1-.61,1.32-1.1,1.4-2.14,2.07-6.54,1.55-8.26-.07-.35-.21-.41-.21-.41Zm-7.18-4.21c-.54,1.14-.99,2.32-1.34,3.53-.77,2.1-.9,4.38-.38,6.55l.09-.26c1.05-3.17,1.61-6.48,1.66-9.82h-.03Zm-6.58-3.15c-.17.15-.66.78-1.35,3.22-.82,2.74-.56,5.68.72,8.24.21-.45.36-.92.45-1.4,1.07-4.91.77-9.35.21-10.06h-.03Z"/>
    <path class="cls-10" d="m125.15,146.45c-1.6.02-3.17-.4-4.56-1.19-.24-.14-.32-.45-.18-.69.14-.23.44-.31.67-.18,0,0,0,0,0,0,3.57,2.09,8.18.63,9.13-.9.14-.19.19-.44.15-.67-1.83.1-3.63-.41-5.13-1.46-2.55-1.59-2.75-2.07-2.73-2.45,0-.22.14-.42.34-.52,1-.5,5.51,1.57,7.39,2.81.23.15.43.32.62.52.74-.17,1.4-.57,1.9-1.14.28-.33.48-.71.59-1.13h-.2c-1.6.16-3.2-.53-4.91-2.11-1.18-1.08-1.63-1.83-1.48-2.42.09-.34.37-.59.72-.65,1.38-.35,4.8,1.11,6.19,2.64.31.33.53.74.64,1.18,1.31-.61,2.69-2,4.32-4.27.16-.23.47-.28.7-.12,0,0,0,0,0,0,.22.16.28.47.12.7-1.89,2.64-3.47,4.14-5.05,4.75-.08.74-.39,1.44-.87,2-.58.67-1.33,1.16-2.18,1.41.1.48,0,.98-.28,1.39-.84,1.43-3.26,2.49-5.92,2.49Zm-.89-6.94c.34.25.82.58,1.51,1,1.08.73,2.31,1.18,3.6,1.32-1.61-.97-3.32-1.74-5.11-2.32Zm3.49-4.25c.29.54.69,1.01,1.17,1.39,1.48,1.37,2.83,2,4.13,1.84h.32c-.07-.31-.22-.6-.44-.83-1.4-1.58-4.48-2.56-5.18-2.4Z"/>
    <path class="cls-15" d="m138.39,145.08l-15.58,2.83-14.15-77.22-30.06,5.46-49,87,5.26,28.71,62.85-11.41,4.3,23.48,30.06-5.48-4.3-23.48,15.58-2.83-4.96-27.06Zm-78.85,14.37l26-45.57,7.25,39.54-33.25,6.03Z"/>
    <path class="cls-15" d="m263.88,65.45c-.47-4.85-1.55-9.63-3.2-14.22-1.7-4.4-4.06-8.51-7-12.19-3.48-4.29-7.8-7.81-12.7-10.36-5.33-2.93-12.41-4.96-21.22-6.11-18.3-2.39-32.56.86-42.78,9.74-10.22,8.88-16.95,25.88-20.2,51-1.3,9.39-1.63,18.88-1,28.34.67,8.67,2.26,15.64,4.78,20.93,3.21,7.13,8.27,13.27,14.65,17.78,6.31,4.43,14.98,7.36,26,8.79,19.59,2.55,34.11-1.21,43.57-11.29s15.73-27.11,18.8-51.1c1.37-10.39,1.47-20.9.3-31.31Z"/>
    <path class="cls-19" d="m210.22,148.88c-2.41-.08-5-.3-7.61-.64-9.16-1.19-16.24-3.51-21.06-6.89-4.81-3.39-8.61-8.02-11-13.4l-.05-.11c-1.92-4-3.18-9.75-3.73-17-.58-8.71-.27-17.45.92-26.1,3.57-27.72,10.94-39.29,16.49-44.11,6.48-5.62,15.23-8.16,26.73-7.76,2.36.08,4.86.29,7.43.62,7.38,1,13.23,2.6,17.37,4.86,3.58,1.84,6.74,4.39,9.31,7.49,2.24,2.8,4.05,5.93,5.35,9.27,1.33,3.73,2.19,7.61,2.56,11.55,1.07,9.55.97,19.19-.29,28.72-2.77,21.54-8.13,36.68-15.92,45-5.78,6.16-14.45,9-26.51,8.54v-.04Z"/>
    <path class="cls-9" d="m229.79,65.74l.13-3.79-2.33-.76c-.1-1.28-.31-2.55-.62-3.8l2-1.46-1.34-3.56-2.44.2c-.57-1.14-1.24-2.24-2-3.27l1.26-2.11-2.6-2.77-2.18,1.12c-.98-.84-2.02-1.59-3.12-2.26l.35-2.42-3.46-1.57-1.58,1.86c-1.22-.4-2.48-.69-3.75-.88l-.59-2.37-3.8-.13-.75,2.32c-1.28.1-2.55.31-3.8.62l-1.47-2-3.56,1.33.2,2.44c-1.14.57-2.24,1.24-3.27,2l-2.1-1.27-2.78,2.59,1.12,2.19c-.84.97-1.59,2.02-2.25,3.13l-2.42-.37-1.58,3.46,1.87,1.58c-.41,1.22-.7,2.48-.88,3.76l-2.38.6-.13,3.78,2.33.76c.1,1.29.31,2.56.62,3.81l-2,1.45,1.34,3.56,2.44-.2c.57,1.15,1.24,2.24,2,3.27l-1.27,2.11,2.6,2.77,2.18-1.11c.98.84,2.02,1.59,3.12,2.25l-.36,2.42,3.46,1.57,1.59-1.85c1.23.39,2.48.69,3.76.87l.59,2.38,3.79.13.75-2.33c1.29-.1,2.56-.31,3.81-.62l1.45,2,3.56-1.33-.19-2.43c1.14-.58,2.23-1.25,3.27-2l2.1,1.26,2.78-2.59-1.11-2.19c.84-.97,1.59-2.02,2.24-3.12l2.42.36,1.58-3.46-1.86-1.58c.4-1.22.69-2.48.87-3.75l2.39-.6Zm-25.6,12.27c-8.28-.3-14.74-7.26-14.44-15.54s7.26-14.74,15.54-14.44c8.25.3,14.71,7.22,14.44,15.47-.27,8.28-7.19,14.78-15.47,14.51-.02,0-.05,0-.07,0h0Z"/>
    <path class="cls-15" d="m259.74,92.1l-3-2.06h0c-.3-1.07-.7-2.11-1.2-3.1l.76-3-4.32-4.63-3,.56c-.95-.57-1.96-1.04-3-1.41h0l-1.85-3.12-6.33-.21-2.06,3h0c-1.07.29-2.11.69-3.1,1.2l-3-.77-4.63,4.33.56,3h0c-.57.95-1.05,1.95-1.41,3l-3.11,1.85-.22,6.33,3,2.06c.29,1.08.69,2.12,1.2,3.12h0l-.76,3,4.32,4.63,3-.55c.95.57,1.96,1.04,3,1.41h0l1.84,3.11,6.34.22,2.05-3c1.08-.29,2.13-.7,3.13-1.2h0l3,.76,4.63-4.32-.55-3c.57-.95,1.04-1.96,1.41-3h0l3.11-1.85.19-6.36Zm-19.73,9.62c-3.93-.13-7.01-3.43-6.87-7.36.13-3.93,3.43-7.01,7.36-6.87,3.93.13,7.01,3.43,6.87,7.36,0,0,0,0,0,0-.14,3.93-3.43,7-7.36,6.87h0Z"/>
    <path class="cls-9" d="m281.45,41.57l.52-1.25h0c.35-.2.69-.43,1-.69h1.16l1.36-2-.44-1.07c.17-.36.3-.73.4-1.11h0l1-.92-.42-2.35-1.26-.52h0c-.2-.35-.43-.69-.69-1v-1.16l-1.95-1.36-1.08.45h0c-.39-.14-.8-.23-1.22-.28l-.92-1-2.34.42-.53,1.26c-.37.19-.72.42-1.05.68h-1.15l-1.36,2,.44,1.07c-.13.4-.23.8-.28,1.22h0l-1,.93.42,2.34,1.26.52c.19.36.42.69.68,1h0v1.15l2,1.36,1.07-.44c.4.13.81.22,1.23.27h0l.92,1,2.23-.52Zm-5-6.48c-.26-1.46.7-2.85,2.16-3.11,1.46-.26,2.85.7,3.11,2.16s-.7,2.85-2.16,3.11c0,0,0,0,0,0-1.45.26-2.84-.71-3.11-2.16Z"/>
    <path class="cls-9" d="m254.06,34.94l-.77-.65c1.65-2.05,3.69-3.75,6-5l.47.88c-2.2,1.2-4.14,2.82-5.7,4.77Z"/>
    <path class="cls-9" d="m262.04,29.25l-.39-.92c3.69-1.6,7.73-2.25,11.74-1.88l-.1,1c-3.84-.36-7.71.26-11.25,1.8Z"/>
    <path class="cls-9" d="m260.15,36.17l-.82-.56c2.41-3.25,5.92-5.52,9.87-6.39l.19,1c-3.7.81-6.98,2.92-9.24,5.95Z"/>
    <path class="cls-15" d="m193.79,132.45c-.14,0-.27-.06-.36-.16l-2.09-2.16c-1.07-.1-2.12-.29-3.15-.58l-3.27,1.44c-.15.08-.32.08-.47,0l-5.48-3.63c-.14-.09-.23-.26-.22-.43v-3.56c-.67-.84-1.26-1.73-1.76-2.68l-2.81-1.08c-.16-.06-.28-.2-.31-.37l-1.3-6.44c-.03-.17.02-.34.14-.46l2.16-2.09c.1-1.06.3-2.12.58-3.15l-1.44-3.27c-.08-.15-.08-.32,0-.47l3.63-5.48c.09-.15.26-.23.43-.22l3.56.05c.83-.67,1.73-1.26,2.68-1.76l1.09-2.81c.06-.16.19-.28.36-.31l6.44-1.3c.17-.04.34.02.46.14l2.09,2.16c1.07.1,2.13.29,3.16.58l3.26-1.44c.15-.08.33-.08.48,0l5.47,3.63c.14.1.23.26.23.43l-.06,3.56c.67.84,1.26,1.73,1.77,2.68l2.8,1.09c.16.06.28.19.31.36l1.31,6.44c.03.17-.02.34-.14.46l-2.17,2.1c-.1,1.06-.29,2.11-.58,3.14l1.44,3.27c.08.15.08.33,0,.48l-3.58,5.43c-.1.14-.25.22-.42.22l-3.57-.05c-.84.66-1.73,1.25-2.67,1.76l-1.09,2.81c-.06.16-.2.28-.37.31l-6.44,1.36h-.1Zm-5.63-4s.09,0,.14,0c1.08.31,2.19.52,3.31.61.12.01.23.07.32.15l2,2.1,5.9-1.19,1.06-2.74c.05-.11.13-.2.24-.26,1-.52,1.94-1.14,2.81-1.85.09-.08.21-.12.33-.11l3.47.05,3.32-5-1.4-3.18c-.04-.11-.04-.23,0-.34.31-1.08.51-2.19.61-3.31.01-.12.06-.23.15-.32l2.1-2-1.19-5.9-2.73-1.06c-.12-.04-.21-.13-.27-.24-.52-1-1.14-1.94-1.85-2.81-.07-.09-.11-.2-.11-.32v-3.48l-5-3.32-3.17,1.4c-.11.04-.24.04-.35,0-1.08-.31-2.2-.52-3.32-.61-.12-.01-.23-.07-.32-.15l-2-2.1-5.9,1.2-1.05,2.78c-.04.11-.12.21-.23.27-1,.52-1.95,1.14-2.82,1.85-.09.08-.2.12-.32.11l-3.47-.05-3.33,5,1.4,3.18c.06.14.06.29,0,.43-.3,1.06-.49,2.14-.58,3.23,0,.12-.06.24-.15.32l-2.1,2,1.2,5.9,2.72,1.06c.12.05.22.14.28.26.52.99,1.13,1.93,1.84,2.79.07.09.11.2.11.32v3.48l5,3.32,3.18-1.4c.05-.03.11-.06.17-.07Zm4.91-3.24c-7.36,0-13.31-5.98-13.31-13.33,0-2.61.77-5.17,2.22-7.35h0c4.06-6.14,12.33-7.83,18.47-3.77s7.83,12.33,3.77,18.47c-2.47,3.74-6.66,5.99-11.15,5.98h0Zm-10.25-20.13c-3.76,5.67-2.21,13.32,3.46,17.08,5.67,3.76,13.32,2.21,17.08-3.46,3.76-5.67,2.21-13.31-3.46-17.07-5.63-3.77-13.25-2.26-17.02,3.37-.02.03-.04.06-.06.09Z"/>
    <path class="cls-15" d="m384.28,154.1l-15.7-2.12,10.38-77.81-30.28-4.08-73.45,67.62-3.86,28.93,63.29,8.54-3.16,23.67,30.28,4.08,3.16-23.66,15.7,2.12,3.64-27.29Zm-79.42-10.72l38.76-35.33-5.32,39.84-33.44-4.51Z"/>
    <path class="cls-2" d="m352.58,202.19h-.13c-.27-.05-.45-.31-.4-.58l23.4-127.94c.06-.27.31-.44.58-.4.27.05.45.31.4.58l-23.35,127.93c-.05.24-.26.41-.5.41Z"/>
    <path class="cls-2" d="m373.28,75.82c-.02.45-.4.81-.85.79s-.81-.4-.79-.85.4-.81.85-.79.81.4.79.85Z"/>
    <path class="cls-2" d="m369.95,93.12c-.02.45-.4.81-.85.79-.45-.02-.81-.4-.79-.85.02-.45.4-.81.85-.79.45.02.81.4.79.85,0,0,0,0,0,0Z"/>
    <path class="cls-2" d="m366.62,110.45c-.02.45-.4.81-.85.79h0c-.45-.01-.8-.38-.79-.83,0,0,0,0,0-.01.01-.45.39-.81.84-.8,0,0,0,0,.01,0,.45.02.8.4.79.85Z"/>
    <path class="cls-2" d="m360.06,128.45c-.05.45-.46.77-.91.72-.38-.04-.68-.34-.72-.72-.05-.45.27-.86.72-.91s.86.27.91.72c0,.06,0,.12,0,.18Z"/>
    <path class="cls-2" d="m359.95,145.02c-.01.45-.38.8-.83.79,0,0-.01,0-.02,0-.45-.02-.81-.4-.79-.85.02-.45.4-.81.85-.79.45.02.81.4.79.85Z"/>
    <path class="cls-2" d="m356.62,162.32c-.01.45-.39.81-.84.8s-.81-.39-.8-.84c.01-.45.39-.81.84-.8,0,0,0,0,0,0,.45.02.8.39.79.84Z"/>
    <path class="cls-2" d="m353.29,179.62c-.02.45-.4.81-.85.8-.45-.02-.81-.4-.79-.85,0,0,0,0,0,0,.01-.45.39-.81.85-.8s.81.39.8.85h0Z"/>
    <path class="cls-2" d="m349.95,196.93c-.02.45-.4.81-.85.79-.45-.02-.81-.4-.79-.85.02-.45.4-.81.85-.79.45.01.8.38.79.83,0,0,0,.01,0,.02Z"/>
    <path class="cls-2" d="m359.24,128.9c-.23,0-.43-.16-.48-.39-.06-.27.11-.54.38-.6h0s2.48-.53,2.48-.53c.27-.06.54.11.6.38,0,0,0,0,0,.01.06.27-.12.53-.39.59,0,0,0,0,0,0l-2.48.53h-.11Z"/>
    <path class="cls-2" d="m367.53,119.69c-1.18,3.06-2.18,6.18-3,9.36-.75,3.53-.79,11.43-.79,11.43"/>
    <path class="cls-2" d="m363.74,140.98h0c-.28-.01-.49-.23-.5-.51,0-.32.06-8,.81-11.52.81-3.2,1.82-6.35,3-9.44.08-.26.36-.41.62-.33s.41.36.33.62c0,.02-.02.05-.03.07-1.18,3.04-2.18,6.14-3,9.29-.73,3.44-.78,11.24-.79,11.32,0,.26-.19.47-.45.5Z"/>
  </g>
  <g id="freepik--Character--inject-5">
    <path class="cls-9" d="m180.9,227.29c1.39-22.4-1.16-63.13,40.95-57.73,45.13,5.77,32.22,58.55,32.22,58.55l-73.17-.82Z"/>
    <circle class="cls-15" cx="209.96" cy="195.45" r="18.38" transform="translate(-16.6 371.39) rotate(-80.78)"/>
    <path class="cls-19" d="m212.38,177.1c-8.71-1.48-18,4.93-18.93,11.43l34.51,3.18c-1.22-7.41-8.68-13.43-15.58-14.61Z"/>
    <path class="cls-19" d="m224.03,194.99c-.25,4.81-2.87,8.58-5.85,8.42s-5.2-4.17-5-9,2.87-8.58,5.85-8.42,5.24,4.2,5,9Z"/>
    <path class="cls-9" d="m209.96,214.83c-10.7,0-19.38-8.68-19.38-19.38,0-10.7,8.68-19.38,19.38-19.38,10.7,0,19.38,8.68,19.38,19.38-.01,10.7-8.68,19.37-19.38,19.38Zm0-36.75c-9.6,0-17.38,7.78-17.38,17.38,0,9.6,7.78,17.38,17.38,17.38,9.6,0,17.38-7.78,17.38-17.38h0c-.01-9.6-7.79-17.37-17.38-17.38Z"/>
    <path class="cls-6" d="m248.94,226.73h-.12c-.26-.06-.43-.32-.37-.58,0,0,0-.01,0-.02,0-.13,3.22-13.69-.09-27.4-.07-.28.1-.55.38-.62s.55.1.62.38c3.37,14,.12,27.74.09,27.87-.06.23-.27.38-.51.37Z"/>
    <path class="cls-6" d="m246.15,191.21c-.2,0-.37-.11-.46-.29-1.24-2.75-2.84-5.32-4.74-7.66-.17-.21-.14-.53.07-.7.21-.18.53-.15.7.06,0,0,0,0,0,0,1.95,2.41,3.59,5.05,4.87,7.87.12.24.02.54-.23.65,0,0,0,0-.01,0-.07.03-.14.05-.21.05Z"/>
    <path class="cls-9" d="m87.18,332.37h-.37c-2.76-.08-4.94-2.38-4.86-5.14.08-2.76,2.38-4.94,5.14-4.86h.09c2.89,0,9.84-3.51,24.38-26.43,1.48-2.33,4.57-3.02,6.9-1.55.21.14.42.29.61.46,11.42,9.82,23.87,18.36,37.14,25.48,2.51,1.14,3.62,4.11,2.48,6.62-1.14,2.51-4.11,3.62-6.62,2.48-.13-.06-.26-.12-.38-.19-12.33-6.55-23.99-14.3-34.8-23.14-12.19,18.35-21.23,26.27-29.71,26.27Z"/>
    <path class="cls-9" d="m118.12,293.95h-.43c-1.64-.24-2.77-1.75-2.54-3.39.71-5-.17-23.63-6.48-38.13-.58-1.32-.13-2.87,1.06-3.68,13.7-9.33,42.88-10.45,44.12-10.49,1.66-.06,3.04,1.24,3.1,2.9.06,1.66-1.24,3.04-2.9,3.1-.27,0-25.78,1-38.88,8.2,5.58,14.44,6.85,32.43,5.92,38.94-.22,1.47-1.49,2.55-2.97,2.55Z"/>
    <path class="cls-15" d="m123.16,290.07c-2-4.71-11-4.18-16.27-.14-2.82,2.15-6.64,8.64-7,11-.41,1.91.81,3.79,2.72,4.2.42.09.85.1,1.28.04,3.45-.3,8.18-5.31,8.18-5.31-3.15,3.09.92,5.27,7,.8,3.32-2.49,6.32-5.32,4.09-10.59Z"/>
    <path class="cls-10" d="m295.16,228.61s-.09.01-.14,0c-.26-.07-.42-.34-.35-.6,0,0,0-.01,0-.02,1.33-4.64,2.78-7.47,4.69-9-.3-1.08-.24-2.22.16-3.26.47-1.22,1.29-2.26,2.36-3-.59-.64-.81-1.54-.59-2.38.36-1.25,1.11-2.36,2.14-3.16-.37-.42-.57-.95-.57-1.51,0-3,5.51-7.52,11.76-8.38.28-.04.53.15.57.43s-.15.53-.43.57c-5.94.81-10.92,5.11-10.9,7.38,0,.34.13.66.36.91,2.72-1.84,6.06-2.52,9.28-1.87,3.07.59,4.32,1.24,4.18,2.17-.28,1.75-6.81,2.12-11.19,1.6-.78-.07-1.55-.29-2.25-.65-.94.67-1.64,1.63-2,2.73-.18.6.02,1.24.49,1.64,1.86-1,4.47-1.36,7.92-.6,4.53,1,4.7,1.55,4.81,1.88.07.24,0,.5-.17.67-.95,1-7.9.53-11.39-.33-.42-.1-.83-.25-1.21-.45-1.03.63-1.83,1.58-2.26,2.71-.29.73-.37,1.53-.23,2.3.18-.11.36-.2.55-.29,2.07-1,4.57-.82,7.66.5,2,.87,3,1.65,3.1,2.44,0,.41-.21.8-.57,1-1.53,1-6.87.86-9.65-.62-.64-.35-1.17-.86-1.54-1.49-1.63,1.5-2.95,4.17-4.15,8.36-.07.19-.25.31-.45.32Zm5.42-9.33c.28.52.7.94,1.22,1.22,2.26,1.2,6.7,1.47,8.36.8.34-.14.39-.25.39-.25,0,0-.05-.56-2.5-1.61-2.8-1.2-5-1.37-6.83-.52-.22.11-.43.23-.64.36h0Zm3.34-6.57l.25.07c3.26.75,6.61,1,9.94.75-1.18-.44-2.4-.77-3.64-1-2.15-.58-4.43-.52-6.55.18Zm1.26-5.62c.46.17.94.27,1.43.32,5,.59,9.39-.1,10-.73-.17-.15-.84-.58-3.32-1.05-2.79-.56-5.69-.03-8.11,1.46Z"/>
    <path class="cls-9" d="m164.98,330.7c.66-.21.44-.85-.3-.85h-13.54c-25.78-2.73-43.79.93-32.44,1.79s-.8.68-9.09,3.82,61.65,3.93,68,0c5.84-3.62-21.77-1.83-12.63-4.76Z"/>
    <polygon class="cls-17" points="261.92 334.69 144.12 330.78 139.23 216.56 278.34 219.67 261.92 334.69"/>
    <path class="cls-9" d="m180.9,332.5c-.26,0-.48-.2-.5-.46l-9.44-114.72c-.02-.27.19-.51.46-.54.27-.01.51.19.54.46l9.49,114.72c.02.28-.18.52-.46.54,0,0,0,0,0,0h-.09Z"/>
    <polygon class="cls-9" points="261.92 334.69 293.58 329.87 303.55 223.66 278.34 219.67 261.92 334.69"/>
    <polygon class="cls-12" points="261.92 334.69 293.58 329.87 303.55 223.66 278.34 219.67 261.92 334.69"/>
    <path class="cls-8" d="m154.18,308.77l-2.9-67.87c-.29-6.77,4.97-12.49,11.74-12.78.26-.01.53-.01.79,0l88.06,2c6.77.15,12.14,5.77,11.99,12.54-.01.49-.05.97-.12,1.46l-9.76,68.34c-.87,6.2-6.27,10.74-12.53,10.55l-75.39-2.5c-6.42-.2-11.6-5.31-11.88-11.73Z"/>
    <path class="cls-15" d="m163.7,248.94l13.62.43-.11,3.51-8.53-.27-.08,2.62,7.91.25-.11,3.36-7.91-.26-.1,3.25,8.77.28-.12,3.72-13.87-.44.53-16.45Z"/>
    <path class="cls-15" d="m179.85,265.92l.52-16.45,8.48.27c1.22,0,2.43.17,3.59.52.83.28,1.53.83,2,1.56,1.4,2.15.79,5.02-1.36,6.42-.09.06-.19.12-.28.17-.57.29-1.18.5-1.81.6.46.15.91.37,1.31.64.29.27.55.57.78.9.26.31.49.65.68,1l2.31,4.85-5.74-.19-2.56-5.11c-.2-.49-.5-.93-.88-1.3-.36-.26-.79-.41-1.23-.42h-.45l-.21,6.67-5.15-.13Zm5.42-9.62l2.14.07c.45-.03.91-.09,1.35-.19.33-.05.64-.23.85-.49.22-.27.34-.6.35-.94.04-.46-.13-.92-.47-1.24-.56-.36-1.22-.53-1.88-.49l-2.24-.07-.1,3.35Z"/>
    <path class="cls-15" d="m197.73,266.45l.52-16.45,8.47.27c1.22,0,2.43.17,3.59.52.83.27,1.53.82,2,1.56.51.8.75,1.74.68,2.69,0,1.63-.88,3.12-2.31,3.9-.57.29-1.18.49-1.81.6.46.15.9.36,1.3.64.3.26.56.56.79.89.26.31.48.65.68,1l2.31,4.84-5.74-.18-2.56-5.11c-.2-.49-.5-.93-.88-1.3-.36-.27-.79-.42-1.24-.42h-.44l-.22,6.68-5.14-.13Zm5.41-9.62l2.15.06c.45-.02.91-.08,1.35-.18.33-.05.63-.22.84-.49.22-.26.35-.6.35-.94.04-.46-.13-.92-.46-1.24-.56-.37-1.22-.54-1.89-.49l-2.23-.07-.11,3.35Z"/>
    <path class="cls-15" d="m214.77,258.81c-.29-4.29,2.96-8.01,7.25-8.3.5-.03,1.01-.02,1.51.05,2.33-.08,4.59.79,6.26,2.41,1.49,1.72,2.22,3.98,2,6.25,0,1.63-.38,3.25-1.12,4.7-.67,1.19-1.68,2.16-2.9,2.78-1.44.69-3.02.99-4.61.88-1.58.01-3.15-.33-4.58-1-1.22-.66-2.22-1.67-2.86-2.9-.76-1.51-1.08-3.19-.95-4.87Zm5.08.18c-.15,1.26.14,2.53.81,3.61,1.3,1.45,3.52,1.57,4.97.27.03-.03.06-.05.09-.08.74-1.12,1.09-2.46,1-3.8.13-1.21-.16-2.42-.83-3.43-.61-.71-1.5-1.11-2.44-1.11-.95-.07-1.87.3-2.51,1-.76,1.02-1.14,2.27-1.09,3.54h0Z"/>
    <path class="cls-15" d="m234.36,267.66l.52-16.46,8.47.27c1.22,0,2.42.17,3.59.52.82.28,1.53.83,2,1.56.5.8.74,1.74.68,2.69,0,1.63-.88,3.13-2.31,3.91-.57.28-1.18.48-1.81.59.46.15.9.37,1.3.65.3.26.56.56.79.89.26.31.49.65.68,1l2.31,4.85-5.74-.18-2.56-5.12c-.2-.48-.5-.92-.88-1.29-.36-.27-.79-.42-1.24-.43h-.44l-.22,6.68-5.14-.13Zm5.41-9.63l2.15.07c.45-.02.91-.08,1.35-.18.33-.05.63-.23.84-.49.24-.28.36-.63.35-1,.04-.46-.13-.91-.46-1.23-.56-.37-1.22-.54-1.89-.49l-2.23-.07-.11,3.39Z"/>
    <path class="cls-15" d="m242.45,295.61c-.38,0-.74-.15-1-.43l-8.56-9.37-9.24,8.44c-.53.49-1.36.45-1.85-.08l-8.56-9.37-9.24,8.44c-.53.49-1.36.45-1.85-.08l-8.57-9.37-9.23,8.44c-.27.25-.63.37-1,.34-.35-.02-.67-.17-.91-.43l-8.56-9.36-9.23,8.43c-.54.49-1.37.45-1.86-.08-.49-.53-.45-1.35.08-1.84,0,0,0,0,.01-.01l10.2-9.33c.54-.49,1.37-.45,1.86.08l8.56,9.37,9.23-8.44c.26-.23.6-.35.95-.34.35.02.67.17.91.43l8.56,9.37,9.24-8.44c.53-.49,1.35-.46,1.84.07,0,0,0,0,.01.01l8.56,9.37,9.24-8.44c.53-.49,1.36-.45,1.85.08l9.56,10.38c.49.54.44,1.38-.1,1.86-.25.22-.57.34-.9.34v-.04Z"/>
    <polygon class="cls-15" points="84.2 337.12 77.94 334.13 72.36 306.96 75.39 303.63 84.2 337.12"/>
    <polygon class="cls-9" points="84.2 337.12 92.51 332.26 85.39 309.88 75.39 303.63 84.2 337.12"/>
    <polygon class="cls-12" points="84.2 337.12 92.51 332.26 85.39 309.88 75.39 303.63 84.2 337.12"/>
    <path class="cls-9" d="m220.45,342.06h-.69c-2.76-.07-4.94-2.37-4.86-5.13.07-2.76,2.37-4.94,5.13-4.87,7.7.25,24-4.48,33.32-13.52.56-.55,1.25-.96,2-1.2,15.79-4.74,21.66,4.83,21.9,5.24l-8.6,5.09c.03.06.07.12.11.18-.09-.13-2.33-3-9.45-1.24-11.69,10.66-29.63,15.45-38.86,15.45Z"/>
    <polygon class="cls-17" points="219.84 348.7 201.63 347.56 200.2 313.98 224.67 314.89 219.84 348.7"/>
    <polygon class="cls-9" points="219.84 348.7 224.1 344.46 226.74 323.53 224.67 314.89 219.84 348.7"/>
    <polygon class="cls-12" points="219.84 348.7 224.1 344.46 226.74 323.53 224.67 314.89 219.84 348.7"/>
    <path class="cls-9" d="m325.36,335.99c-.65,0-1.29-.21-1.81-.61-10.4-7.9-24.45-21.93-29.84-35.46-.08-.2-.14-.4-.17-.61-2.63-15.64-5.14-48.55-5.25-49.94-.12-1.66,1.12-3.1,2.77-3.23s3.1,1.12,3.23,2.77c0,.33,2.57,33.56,5.13,49.07,5.38,13.16,20,26.67,27.78,32.61,1.32,1,1.58,2.88.58,4.2-.57.75-1.46,1.19-2.4,1.19h-.02Z"/>
    <path class="cls-9" d="m339.23,337.5c-2.32,0-4.95-1.05-7.82-3.12-1.34-.97-1.64-2.85-.67-4.19.97-1.34,2.85-1.64,4.19-.67,2.48,1.79,3.83,2,4.3,2,1.66,0,3,1.34,3,3s-1.34,3-3,3v-.02Z"/>
    <path class="cls-15" d="m332.25,334.29c3.21-9.53,16.37-7.65,20.91-6.23,3.88,1.13,7.6,2.74,11.07,4.8,2.45,1.6,2.49,4.29-.78,5.82-4,1.88-14.16.21-14.16.21,5.24,2.29,0,6-9.21,2.36-2.99-1.18-8.96-3.46-7.83-6.96Z"/>
    <path class="cls-9" d="m300.31,253.45c-1.19,8.1-7.9,14.07-13.36,13.27s-5.68-8-4.49-16.14,3.35-14,8.81-13.2,10.23,8,9.04,16.07Z"/>
    <circle class="cls-9" cx="168.33" cy="220.33" r=".82"/>
    <path class="cls-9" d="m176.66,226.23c0,.45-.37.82-.82.82-.45,0-.82-.37-.82-.82s.37-.82.82-.82.82.37.82.82h0Z"/>
    <path class="cls-9" d="m177.58,323.13c0,.45-.37.82-.82.82-.45,0-.82-.37-.82-.82s.37-.82.82-.82.82.37.82.82h0Z"/>
    <path class="cls-9" d="m185.09,329.04c0,.45-.37.82-.82.82-.45,0-.82-.37-.82-.82s.37-.82.82-.82.82.37.82.82h0Z"/>
  </g>
  <g id="freepik--robot-parts--inject-5">
    <path class="cls-7" d="m40.96,338.87c-2.92-.14-5.61-1.59-7.33-3.95-.17-.22-.13-.53.09-.7.22-.17.53-.13.7.09.01.01.02.03.03.04,1.87,2.7,6,4.13,7.8,3.28.18-.08.34-.19.47-.34-1.85-.81-3.17-2.49-3.52-4.48-.23-1.27-.41-3,.63-3.22,1.44-.32,3.32,3.15,4,5.78.12.44.17.89.13,1.34.58.17,1.18.22,1.78.14.54-.04,1.04-.31,1.38-.74-1.33-1-2.17-2.53-2.31-4.19-.38-2.74-.09-3.21.21-3.45.2-.15.47-.18.69-.07,1.07.45,2.36,4.33,2.61,6.53.03.23.03.46,0,.69.43.17.89.25,1.35.26.85.03,1.69-.19,2.41-.63-.14-.09-.27-.19-.4-.29-1-.89-1.46-2.31-1.28-4.33.14-1.57.49-2.43,1.12-2.7.42-.17.89-.07,1.21.24,1.37,1.51,2,3.54,1.73,5.56-.09.42-.26.81-.51,1.15,1.84.32,4.42-.2,6.65-.75.28-.07.55.1.62.38.07.28-.1.55-.38.62-2.71.67-5.63,1.22-7.69.62-1.01.76-2.24,1.17-3.5,1.16-.56,0-1.12-.11-1.64-.31-.47.73-1.25,1.2-2.12,1.27-.75.1-1.52.03-2.24-.19-.23.39-.58.7-1,.89-.54.22-1.11.32-1.69.3Zm-.86-8.28c-.14.68-.11,1.38.08,2.05.29,1.62,1.35,3,2.84,3.7-.01-.24-.05-.47-.12-.7-.78-2.86-2.28-4.83-2.8-5.05Zm5.57-.87c0,.69.06,1.38.17,2.06.11,1.22.65,2.36,1.52,3.22-.25-1.85-.82-3.63-1.69-5.28h0Zm6.29-.87h0s-.38.19-.52,1.86.15,2.82.93,3.49c.18.15.39.28.6.38.26-.28.45-.63.54-1,.18-1.57-.25-3.16-1.19-4.43-.21-.26-.33-.3-.36-.3h0Z"/>
    <polygon class="cls-1" points="187.32 346.43 190.03 341.73 187.32 337.03 184.42 337.03 186.06 341.73 184.42 346.43 187.32 346.43"/>
    <path class="cls-1" d="m184.61,344.18c-1.35.09-2.51-.94-2.6-2.29-.09-1.35.94-2.52,2.29-2.6.1,0,.21,0,.31,0l-4.6-.92-1.23,3.72,2.06,3.14,3.77-1.05Z"/>
    <path class="cls-3" d="m185.01,337.03h-5.43l-2.71,4.7,2.71,4.7h5.43l2.71-4.7-2.71-4.7Zm-2.71,7.15c-1.35,0-2.45-1.09-2.46-2.44s1.09-2.45,2.44-2.46c1.35,0,2.45,1.09,2.46,2.44,0,0,0,0,0,0,0,1.35-1.09,2.44-2.44,2.45h0Z"/>
    <polygon class="cls-9" points="376.34 336.71 374.33 333.22 376.34 329.73 378.49 329.73 377.28 333.22 378.49 336.71 376.34 336.71"/>
    <path class="cls-9" d="m378.35,335.04c1,.07,1.88-.68,1.95-1.68.07-1-.68-1.88-1.68-1.95-.09,0-.18,0-.27,0l3.42-.68.91,2.76-1.52,2.33-2.81-.78Z"/>
    <path class="cls-20" d="m378.06,329.73h4l2,3.49-2,3.49h-4l-2-3.49,2-3.49Zm2,5.31c1.01,0,1.82-.8,1.83-1.81,0-1.01-.8-1.82-1.81-1.83-1.01,0-1.82.8-1.83,1.81,0,0,0,0,0,0,0,1,.8,1.81,1.8,1.82,0,0,.01,0,.02,0h-.01Z"/>
    <path class="cls-1" d="m301.45,341.35h4.52c1.18,0,2.13-.96,2.13-2.14h0c0-1.18-.95-2.13-2.13-2.14h-4.52c-1.18,0-2.14.96-2.14,2.14h0c0,1.18.96,2.14,2.14,2.14h0Z"/>
    <path class="cls-3" d="m294.18,337.31c1.19-2.16,3.9-2.95,6.06-1.76s2.95,3.9,1.76,6.06c-1.14,2.07-3.68,2.89-5.82,1.88-2.25-1.16-3.14-3.92-2-6.18Z"/>
    <rect class="cls-14" x="293.12" y="338.53" width="10.1" height="1.37" transform="translate(-135.8 464.28) rotate(-64.76)"/>
  </g>
</svg>